<?xml version="1.0" encoding="utf-8"?>
<!-- Generator: Adobe Illustrator 27.5.0, SVG Export Plug-In . SVG Version: 6.00 Build 0)  -->
<svg version="1.1" xmlns="http://www.w3.org/2000/svg" xmlns:xlink="http://www.w3.org/1999/xlink" x="0px" y="0px"
	 viewBox="0 0 3710 3710" style="enable-background:new 0 0 3710 3710;" xml:space="preserve">
<g id="Background">
	<g>
		<g>
			<rect style="fill:#FFFFFF;" width="3710" height="3710"/>
		</g>
	</g>
</g>
<g id="Illustration">
	<g>
		<path style="fill:#F4F7FA;" d="M2941.013,2863.639c-73.696,75.498-139.636,119.879-190.122,153.383
			c-492.381,326.758-1055.226,232.579-1229.244,200.388c-280.756-51.935-517.753-88.573-721.376-271.414
			c-462.693-415.47-440.188-1282.17-86.635-1819.054c41.921-63.659,394.939-583.744,959.003-657.028
			c13.796-1.793,24.09-2.813,33.106-3.762c87.259-9.183,627.988-57.645,1068.899,309.492
			c63.114,52.554,164.683,147.348,258.87,291.924C3377.906,1596.202,3378.997,2414.941,2941.013,2863.639z"/>
		<g>
			<path style="fill:#D8DEE8;" d="M2973.089,2568.02c45.413,23.047,102.459,1.867,127.412-47.306
				c24.955-49.173,8.37-107.719-37.043-130.765c-2.351-1.195-4.753-2.198-7.16-3.158c8.43-27.208,14.786-54.629,19.048-82.06
				c2.602-0.007,5.214-0.052,7.868-0.289c51.806-4.628,92.914-52.241,91.821-106.351c-1.095-54.11-43.98-94.223-95.787-89.595
				c-2.708,0.244-5.367,0.67-8.013,1.141c-5.415-26.813-12.834-53.006-22.194-78.356c2.383-1.395,4.754-2.836,7.071-4.459
				c44.317-31.06,58.477-92.353,31.626-136.898c-26.851-44.546-84.547-55.476-128.864-24.416c-2.272,1.592-4.407,3.311-6.519,5.056
				c-17.51-19.349-36.714-37.282-57.492-53.646c1.46-2.396,2.89-4.821,4.183-7.369c24.955-49.173,57.567-102.887,11.799-125.22
				c-105.877-51.663-151.298-7.412-176.254,41.76c-1.293,2.548-2.407,5.135-3.479,7.726c-25.475-7.107-51.285-12.021-77.241-14.729
				c0.162-2.734,0.287-5.472,0.232-8.247c-1.096-54.107,14.954-83.391-37.049-84.392c-113.402-2.185-151.653,47.044-150.559,101.15
				c0.057,2.829,0.295,5.594,0.574,8.341c-25.985,7.411-51.506,16.888-76.345,28.347c-1.182-2.414-2.407-4.812-3.809-7.142
				c-26.852-44.545-84.545-55.475-128.865-24.412c-44.319,31.063-58.478,92.353-31.626,136.898c1.374,2.283,2.882,4.416,4.412,6.521
				c-19.625,19.635-38.004,40.954-54.985,63.823c-2.197-1.377-4.426-2.724-6.778-3.918c-45.413-23.046-102.458-1.867-127.412,47.306
				c-24.956,49.173-8.371,107.719,37.042,130.765c2.354,1.195,4.755,2.198,7.163,3.158c-8.431,27.208-14.788,54.629-19.048,82.06
				c-2.604,0.008-5.215,0.052-7.867,0.288c-51.809,4.629-92.917,52.242-91.823,106.353c1.095,54.109,43.981,94.22,95.788,89.592
				c2.706-0.241,5.366-0.667,8.01-1.139c5.417,26.814,12.836,53.006,22.195,78.357c-2.382,1.394-4.754,2.836-7.069,4.459
				c-44.318,31.06-58.478,92.353-31.627,136.899c26.852,44.547,115.724,65.228,160.042,34.166
				c2.271-1.593-26.771-13.062-24.659-14.806c17.511,19.351,36.715,37.282,57.491,53.646c-1.458,2.395-2.889,4.821-4.18,7.368
				c-24.956,49.173-8.371,107.719,37.042,130.765c45.413,23.047,102.458,1.868,127.413-47.305c1.293-2.547,2.406-5.134,3.477-7.726
				c25.476,7.107,51.285,12.021,77.242,14.729c-0.162,2.734-0.287,5.473-0.232,8.246c1.095,54.107,43.98,94.22,95.787,89.593
				c51.806-4.628,92.917-52.244,91.82-106.352c-0.057-2.827-0.294-5.592-0.575-8.339c25.988-7.412,51.509-16.887,76.347-28.347
				c1.181,2.413,2.407,4.812,3.81,7.139c26.852,44.545,84.545,55.477,128.863,24.415c44.319-31.063,58.479-92.353,31.628-136.901
				c-1.376-2.28-2.883-4.414-4.413-6.519c19.624-19.634,38.003-40.953,54.985-63.823
				C2968.509,2565.481,2970.736,2566.827,2973.089,2568.02z M2407.024,2575.308c-164.885-83.679-225.1-296.246-134.493-474.782
				c90.606-178.537,297.721-255.435,462.606-171.757c164.885,83.678,225.101,296.243,134.496,474.78
				C2779.025,2582.086,2571.91,2658.984,2407.024,2575.308z"/>
			<path style="fill:#D8DEE8;" d="M3083.213,2304.442c51.806-4.629,92.914-52.243,91.821-106.352
				c-1.095-54.109-43.98-94.222-95.787-89.593c-2.708,0.241-5.367,0.671-8.013,1.14c-5.414-26.814-12.834-53.005-22.194-78.356
				c2.383-1.393,4.754-2.836,7.071-4.46c44.317-31.06,99.139-106.103,67.861-147.658c-59.366-78.87-120.782-44.715-165.099-13.655
				c-2.272,1.592-4.407,3.31-6.518,5.054c-17.511-19.35-36.715-37.279-57.493-53.645c1.46-2.395,2.89-4.82,4.183-7.367
				c13.582-26.763,14.776-56.266,5.798-81.347c-42.798,75.358-85.019,151.034-126.482,227.12
				c131.545,96.356,173.454,286.284,91.27,448.227c-69.642,137.231-208.117,214.307-343.342,204.677
				c-6.029,15.644-11.948,31.374-18.406,46.867c-17.52,42.046-37.426,83.226-57.357,124.353c12.541,2.362,25.135,4.22,37.766,5.54
				c-0.162,2.735-0.287,5.475-0.232,8.246c1.095,54.109,33.955,100.075,127.846,95.078c51.939-2.764,60.856-57.726,59.76-111.835
				c-0.057-2.826-0.293-5.591-0.574-8.338c25.986-7.412,51.507-16.888,76.346-28.348c1.181,2.414,2.407,4.811,3.811,7.138
				c26.852,44.547,119.976,63.459,164.295,32.396c44.32-31.063,23.047-100.334-3.804-144.88c-1.376-2.282-2.883-4.416-4.413-6.521
				c19.624-19.634,38.004-40.954,54.985-63.822c2.198,1.379,4.425,2.724,6.778,3.916c45.413,23.05,102.459,1.867,127.414-47.306
				c24.954-49.171,8.37-107.719-37.043-130.764c-2.353-1.196-4.755-2.198-7.162-3.157c8.43-27.208,14.786-54.631,19.048-82.059
				C3077.947,2304.723,3080.559,2304.678,3083.213,2304.442z"/>
			<path style="fill:#FFFFFF;" d="M3021.93,2573.565c45.413,23.047,102.458,1.868,127.414-47.306
				c24.954-49.173,8.369-107.719-37.044-130.765c-2.353-1.194-4.754-2.198-7.162-3.158c8.432-27.208,14.788-54.629,19.047-82.06
				c2.604-0.007,5.216-0.051,7.87-0.289c51.806-4.627,92.915-52.241,91.821-106.35c-1.094-54.111-43.979-94.223-95.786-89.595
				c-2.708,0.243-5.366,0.67-8.012,1.141c-5.416-26.813-12.836-53.006-22.195-78.356c2.383-1.395,4.754-2.836,7.071-4.459
				c44.317-31.06,58.477-92.353,31.626-136.899c-26.851-44.546-84.546-55.476-128.864-24.415c-2.271,1.593-4.407,3.311-6.519,5.055
				c-17.51-19.349-36.714-37.28-57.491-53.645c1.46-2.395,2.89-4.821,4.183-7.368c24.955-49.173,8.37-107.719-37.042-130.766
				c-45.414-23.047-102.458-1.867-127.413,47.306c-1.292,2.548-2.407,5.135-3.479,7.727c-25.474-7.108-51.284-12.022-77.239-14.73
				c0.161-2.734,0.286-5.472,0.231-8.246c-1.096-54.108-43.98-94.22-95.788-89.592c-51.805,4.626-92.915,52.243-91.821,106.349
				c0.058,2.828,0.294,5.593,0.575,8.339c-25.985,7.413-51.506,16.888-76.346,28.348c-1.181-2.414-2.407-4.812-3.809-7.142
				c-26.85-44.545-84.547-55.475-128.865-24.413c-44.318,31.064-58.477,92.354-31.626,136.899c1.376,2.282,2.882,4.416,4.413,6.521
				c-19.625,19.635-38.005,40.952-54.986,63.823c-2.198-1.377-4.425-2.723-6.778-3.917c-45.413-23.048-102.457-1.867-127.412,47.305
				c-24.955,49.173-8.371,107.72,37.042,130.766c2.354,1.195,4.754,2.197,7.163,3.157c-8.431,27.208-14.788,54.629-19.048,82.06
				c-2.602,0.009-5.216,0.052-7.868,0.287c-51.806,4.631-92.916,52.243-91.821,106.353c1.094,54.11,43.98,94.219,95.787,89.593
				c2.706-0.241,5.367-0.668,8.01-1.139c5.416,26.813,12.836,53.006,22.195,78.356c-2.381,1.394-4.754,2.835-7.069,4.46
				c-44.318,31.06-58.477,92.354-31.626,136.898c26.852,44.546,84.546,55.477,128.863,24.417c2.272-1.594,4.409-3.311,6.519-5.056
				c17.512,19.35,36.715,37.282,57.491,53.646c-1.459,2.395-2.889,4.821-4.182,7.369c-24.955,49.172-8.37,107.718,37.043,130.765
				c45.413,23.046,102.458,1.867,127.412-47.306c1.293-2.546,2.406-5.134,3.478-7.725c25.474,7.107,51.286,12.02,77.241,14.729
				c-0.161,2.733-0.288,5.472-0.233,8.246c1.097,54.106,43.981,94.221,95.787,89.593c51.806-4.627,92.917-52.244,91.82-106.35
				c-0.056-2.827-0.293-5.593-0.575-8.339c25.987-7.412,51.507-16.887,76.346-28.347c1.181,2.412,2.409,4.811,3.811,7.138
				c26.851,44.546,84.545,55.479,128.863,24.416c44.319-31.063,58.478-92.353,31.628-136.9c-1.376-2.28-2.883-4.415-4.414-6.52
				c19.625-19.635,38.004-40.953,54.986-63.823C3017.349,2571.024,3019.577,2572.371,3021.93,2573.565z M2455.865,2580.851
				c-164.885-83.679-225.101-296.243-134.494-474.781c90.608-178.536,297.721-255.435,462.606-171.757
				c164.886,83.679,225.1,296.244,134.496,474.781C2827.866,2587.632,2620.751,2664.528,2455.865,2580.851z"/>
		</g>
		<g>
			<g>
				<g>
					<g>
						<defs>
							<path id="SVGID_1_" d="M1471.08,3014.497c-2.742,40.288-13.603,98.654-23.709,165.063l627.578-215.708
								c-156.778-144.283-344.919-283.73-366.135-663.308c-9.956-178.129,30.619-521.162-127.367-654.793
								c-179.99-152.245-296.191,13.189-413.637-115.939c-183.567-201.825-466.775-262.28-621.157-35.709
								c-152.37,223.615,70.577,639.83,585.317,955.913C1475.563,2718.606,1485.4,2804.127,1471.08,3014.497z"/>
						</defs>
						
							<linearGradient id="SVGID_00000127732380035366564320000017202340904267177096_" gradientUnits="userSpaceOnUse" x1="2090.5596" y1="3515.7029" x2="242.5717" y2="320.2281">
							<stop  offset="0" style="stop-color:#AA80F9"/>
							<stop  offset="0.9964" style="stop-color:#6165D7"/>
						</linearGradient>
						
							<use xlink:href="#SVGID_1_"  style="overflow:visible;fill:url(#SVGID_00000127732380035366564320000017202340904267177096_);"/>
						<clipPath id="SVGID_00000052784819753023395360000015506712499433319561_">
							<use xlink:href="#SVGID_1_"  style="overflow:visible;"/>
						</clipPath>
						<g style="clip-path:url(#SVGID_00000052784819753023395360000015506712499433319561_);">
							<g>
								<path style="fill:#FCFDFE;" d="M1759.323,3031.679c-35.218-78.879-72.434-151.49-111.837-228.366l-13.132-25.633
									c-21.254-35.849-41.238-71.773-60.563-106.514c-43.637-78.446-84.855-152.544-139.494-225.613
									c-2.663-4.54-5.021-9.066-7.516-13.861c-8.914-17.122-18.134-34.824-36.823-46.674l-0.592-0.587
									c-257.698-402.547-602.751-758.677-1025.57-1058.494l2.228-3.14c423.094,300.013,768.414,656.385,1026.357,1059.2
									c19.326,12.407,29.144,31.266,37.812,47.918c2.475,4.751,4.811,9.24,7.309,13.515
									c54.672,73.095,95.951,147.302,139.653,225.866c19.312,34.718,39.283,70.618,60.569,106.525l13.187,25.738
									c39.427,76.921,76.666,149.579,111.927,228.553L1759.323,3031.679z"/>
								<path style="fill:#FCFDFE;" d="M1562.47,2658.444c-106.638-198.203-123.295-490.201-118.492-700.256
									c5.202-227.479,35.989-410.525,36.301-412.346l3.795,0.646c-0.309,1.821-31.057,184.636-36.25,411.844
									c-4.789,209.574,11.803,500.839,118.036,698.291L1562.47,2658.444z"/>
								<path style="fill:#FCFDFE;" d="M980.906,1857.766c-124.879-204.018-208.69-447.05-236.231-526.912
									c-5.269-15.275-8.749-25.367-9.749-27.162l3.363-1.874c1.119,2.008,3.881,9.968,10.025,27.783
									c27.507,79.764,111.215,322.496,235.874,526.155L980.906,1857.766z"/>
								<path style="fill:#FCFDFE;" d="M1231.616,2157.773c-165.552-145.967-623.136-115.608-627.739-115.286l-0.27-3.839
									c4.618-0.325,463.807-30.782,630.555,116.239L1231.616,2157.773z"/>
							</g>
						</g>
					</g>
				</g>
				<g>
					<g>
						<defs>
							<path id="SVGID_00000010272844421658896390000007345402874502541503_" d="M1023.592,2508.102
								c89.564,250.966,182.562,126.163,303.178,112.511c193.663,142.683,265.525,312.12,123.95,528.439l-226.244,41.759
								c-81.113,23.736-183.182,31.535-214.437-76.593c-35.348-122.291-33.163-208.43-189.17-220.831
								c-156.006-12.403-251.338-100.108-238.505-241.551c13.505-148.846-181.898-276.066-112.463-396.551
								C590.886,2045.346,930.328,2246.771,1023.592,2508.102z"/>
						</defs>
						
							<linearGradient id="SVGID_00000101085690778052779310000012851325085998521791_" gradientUnits="userSpaceOnUse" x1="738.4213" y1="2277.3899" x2="1580.5538" y2="3663.7568">
							<stop  offset="0.0036" style="stop-color:#E38DDD"/>
							<stop  offset="1" style="stop-color:#9571F6"/>
						</linearGradient>
						
							<use xlink:href="#SVGID_00000010272844421658896390000007345402874502541503_"  style="overflow:visible;fill:url(#SVGID_00000101085690778052779310000012851325085998521791_);"/>
						<clipPath id="SVGID_00000165926721984105070110000010907749815556450445_">
							<use xlink:href="#SVGID_00000010272844421658896390000007345402874502541503_"  style="overflow:visible;"/>
						</clipPath>
						<g style="clip-path:url(#SVGID_00000165926721984105070110000010907749815556450445_);">
							<g>
								<path style="fill:#FCFDFE;" d="M1232.007,2940.678c-123.619-67.405-238.994-149.867-342.922-245.098
									c-104.822-96.053-196.599-203.822-272.776-320.319c-43.682-66.8-82.388-136.852-115.04-208.208l3.129-1.43
									c32.584,71.197,71.204,141.096,114.793,207.755c76.019,116.255,167.607,223.805,272.221,319.663
									c103.722,95.042,218.87,177.343,342.242,244.614L1232.007,2940.678z"/>
								<path style="fill:#FCFDFE;" d="M1047.977,3158.68l-2.475-2.394c32.967-34.094,74.653-66.174,123.9-95.348
									c23.466-13.902,47.376-25.972,71.064-35.874l1.329,3.176c-23.543,9.84-47.31,21.837-70.637,35.661
									C1122.173,3092.917,1080.73,3124.805,1047.977,3158.68z"/>
								<path style="fill:#FCFDFE;" d="M955.686,2753.078c-148.056-69.292-381.204,21.827-383.531,22.769l-1.271-3.2
									c2.361-0.928,236.852-92.614,386.261-22.686L955.686,2753.078z"/>
								<path style="fill:#FCFDFE;" d="M722.257,2519.657c-92.195-160.041-31.791-402.367-31.17-404.794l3.333,0.852
									c-0.617,2.416-60.67,243.407,30.821,402.225L722.257,2519.657z"/>
							</g>
						</g>
					</g>
				</g>
			</g>
		</g>
		<g>
			
				<linearGradient id="SVGID_00000008116885107005808600000016634313381972877480_" gradientUnits="userSpaceOnUse" x1="1747.3209" y1="1146.7334" x2="3243.5942" y2="1146.7334">
				<stop  offset="0.0036" style="stop-color:#E38DDD"/>
				<stop  offset="1" style="stop-color:#9571F6"/>
			</linearGradient>
			<path style="fill:url(#SVGID_00000008116885107005808600000016634313381972877480_);" d="M3237.488,908.184
				c-60.85-327.842-579.773-506.696-963.584-438.969c-72.222,12.744-401.019,70.765-498.122,309.709
				c-127.164,312.922,188.331,824.696,617.518,883.337c19.019,2.599,38.026,4.256,56.982,5.057
				c6.942,90.366-88.498,168.271-88.498,168.271c213.471,25.293,345.936-121.299,416.312-237.928
				C3069.427,1461.381,3282.917,1152.945,3237.488,908.184z"/>
			<g>
				<path style="fill:#FFFFFF;" d="M2350.23,1158.451h-197.406v-39.164l93.163-99.295c12.789-13.976,22.256-26.174,28.385-36.593
					c6.132-10.416,9.2-20.305,9.2-29.67c0-12.789-3.233-22.846-9.695-30.164c-6.462-7.319-15.692-10.978-27.691-10.978
					c-12.924,0-23.11,4.45-30.558,13.352c-7.454,8.901-11.178,20.605-11.178,35.109h-57.361c0-17.536,4.184-33.558,12.561-48.065
					c8.373-14.504,20.207-25.878,35.506-34.12c15.295-8.24,32.636-12.363,52.019-12.363c29.669,0,52.716,7.121,69.131,21.362
					c16.419,14.242,24.627,34.352,24.627,60.329c0,14.242-3.693,28.749-11.077,43.517c-7.387,14.77-20.045,31.978-37.978,51.625
					l-65.471,69.032h123.824V1158.451z"/>
				<path style="fill:#FFFFFF;" d="M2554.357,1050.056h32.636v46.088h-32.636v62.307h-57.162v-62.307h-118.089l-2.57-36
					l120.063-189.689h57.758V1050.056z M2433.503,1050.056h63.692V948.388l-3.761,6.527L2433.503,1050.056z"/>
				<path style="fill:#FFFFFF;" d="M2638.027,1183.175h-42.526l106.02-312.72h42.526L2638.027,1183.175z"/>
				<path style="fill:#FFFFFF;" d="M2964.791,902.363l-111.361,256.088h-60.328l111.56-241.908h-143.207v-46.087h203.336V902.363z"
					/>
			</g>
			
				<linearGradient id="SVGID_00000029757431838812331630000011718011283854580627_" gradientUnits="userSpaceOnUse" x1="4045.1338" y1="349.9174" x2="3620.561" y2="1585.8947" gradientTransform="matrix(0.9647 0.2633 -0.2633 0.9647 -1043.694 -674.6683)">
				<stop  offset="0.0036" style="stop-color:#E38DDD"/>
				<stop  offset="1" style="stop-color:#9571F6"/>
			</linearGradient>
			<path style="opacity:0.3;fill:url(#SVGID_00000029757431838812331630000011718011283854580627_);" d="M3237.488,908.185
				c-60.85-327.842-579.773-506.697-963.584-438.969c-18.526,3.269-53.96,9.532-98.01,21.049
				c-23.727,60.221-33.782,123.045-20.226,185.333c70.087,322.038,725.365,419.96,702.666,609.666
				c-14.08,117.672-277.258,172.394-289.334,366.833c-2.158,34.734,4.769,56.687-10.332,87.833
				c-28.465,58.709-103.925,85.531-187.663,96.642c208.07,20.061,337.734-123.972,407.09-238.911
				C3069.426,1461.381,3282.917,1152.945,3237.488,908.185z"/>
		</g>
		<g>
			
				<linearGradient id="SVGID_00000049903438215751678020000016522668916766662315_" gradientUnits="userSpaceOnUse" x1="1760.1974" y1="-421.5424" x2="3535.7485" y2="-421.5424" gradientTransform="matrix(-0.6618 0.7497 0.7497 0.6618 3426.3811 135.9852)">
				<stop  offset="0" style="stop-color:#311944"/>
				<stop  offset="1" style="stop-color:#6B3976"/>
			</linearGradient>
			<path style="fill:url(#SVGID_00000049903438215751678020000016522668916766662315_);" d="M2196.551,1626.239
				c4.758-120.64,7.136-180.961-17.863-226.278c-54.626-99.022-178.973-140.389-271.632-140.452
				c-130.036-0.089-227.581,81.147-289.313,132.557c-79.319,66.057-65.603,86.802-112.424,108.884
				c-129.408,61.033-239.301-95.026-426.951-97.78c-207.045-3.039-362.157,182.703-399.521,231.199
				c-199.095,258.413-98.397,570.156-87.54,601.915c100.589,294.261,393.481,454.978,638.052,461.522
				c69.934,1.871,248.842,6.657,326.566-102.001c74.845-104.633-7.685-225.623,92.634-374.438
				c14.016-20.792,56.489-83.794,135.076-124.678c88.751-46.17,139.786-20.546,231.687-72.221
				c74.516-41.9,114.562-100.132,122.429-111.899C2187.227,1838.558,2191.009,1766.758,2196.551,1626.239z"/>
			<g style="opacity:0.3;">
				
					<linearGradient id="SVGID_00000015316348848739876770000004788856889234109092_" gradientUnits="userSpaceOnUse" x1="1760.1943" y1="-223.0353" x2="3535.7532" y2="-223.0353" gradientTransform="matrix(-0.6618 0.7497 0.7497 0.6618 3426.3811 135.9852)">
					<stop  offset="0" style="stop-color:#311944"/>
					<stop  offset="1" style="stop-color:#6B3976"/>
				</linearGradient>
				<path style="fill:url(#SVGID_00000015316348848739876770000004788856889234109092_);" d="M617.638,2301.378
					c204.818,225.258,308.777,272.245,361.788,245.701c74.171-37.14,30.906-209.316,140.602-272.838
					c98.666-57.135,194.795,46.761,283.682-7.206c112.354-68.217,13.973-267.739,122.916-371.645
					c129.662-123.668,372.287,60.481,544.022-53.052c52.016-34.387,103.063-99.835,126.488-230.955
					c-0.191,4.86-0.384,9.785-0.584,14.856c-5.542,140.519-9.323,212.32-58.8,286.33c-7.866,11.768-47.913,69.999-122.429,111.899
					c-91.901,51.675-142.935,26.05-231.687,72.221c-78.588,40.884-121.061,103.886-135.076,124.677
					c-100.319,148.815-17.788,269.805-92.634,374.438c-77.724,108.659-256.632,103.873-326.566,102.001
					C1003.474,2691.76,736.385,2554.195,617.638,2301.378z"/>
			</g>
			
				<linearGradient id="SVGID_00000054232710963588355590000001700737594167882889_" gradientUnits="userSpaceOnUse" x1="580.4211" y1="333.6381" x2="489.8164" y2="693.6724" gradientTransform="matrix(-0.3992 -0.9169 -0.9169 0.3992 3664.4155 2400.708)">
				<stop  offset="0" style="stop-color:#AB316D"/>
				<stop  offset="1" style="stop-color:#792D3D"/>
			</linearGradient>
			<path style="fill:url(#SVGID_00000054232710963588355590000001700737594167882889_);" d="M2968.835,2099.327
				c0,0,27.482-32.862,79.043-34.419c51.561-1.555,121.822-32.149,151.994-34.84c7.28-0.65,10.889-2.741,11.507-5.397
				c1.273-5.469-32.222-13.448-61.935-14.436c-52.684-1.754-83.412,18.462-90.516,8.07c-7.944-11.618,26.062-43.326,19.834-50.427
				c-4.828-5.504-27.948,12.169-52.697,22.945c-17.565,7.65-86.269,89.804-86.269,89.804L2968.835,2099.327z"/>
			
				<linearGradient id="SVGID_00000000945447991525755140000017626982382163619214_" gradientUnits="userSpaceOnUse" x1="-2933.1558" y1="430.2471" x2="-2034.6914" y2="430.2471" gradientTransform="matrix(-0.7576 -0.6528 -0.6528 0.7576 859.7039 356.3905)">
				<stop  offset="0" style="stop-color:#FF9085"/>
				<stop  offset="1" style="stop-color:#FB6FBB"/>
			</linearGradient>
			<path style="fill:url(#SVGID_00000000945447991525755140000017626982382163619214_);" d="M2970.511,2039.678
				c12.783,25.799,25.567,51.599,38.35,77.398c-12.643,69.467-38.413,172.051-96.04,284.47
				c-62.018,120.986-203.385,396.77-452.292,421.792c-189.829,19.084-349.083-116.833-409.366-168.84
				c-55.754-48.1-105.768-90.526-130.052-158.188c-38.305-106.734,0.368-238.33,93.143-362.254
				c45.673-61.007,140.713-47.869,167.712,23.398c42.594,112.435,114.422,190.529,196.945,205.788
				c92.788,17.156,196.119-45.698,240.1-72.395c65.401-39.699,82.073-70.232,163.417-133.125
				C2857.63,2099.577,2925.767,2061.973,2970.511,2039.678z"/>
			<g style="opacity:0.3;">
				
					<linearGradient id="SVGID_00000012433139327094798640000012149231439458377919_" gradientUnits="userSpaceOnUse" x1="-2933.1558" y1="439.9806" x2="-2033.1019" y2="439.9806" gradientTransform="matrix(-0.7576 -0.6528 -0.6528 0.7576 859.7039 356.3905)">
					<stop  offset="0" style="stop-color:#FF9085"/>
					<stop  offset="1" style="stop-color:#FB6FBB"/>
				</linearGradient>
				<path style="fill:url(#SVGID_00000012433139327094798640000012149231439458377919_);" d="M2214.86,2618.173
					c71.093-16.006,97.926-82.022,195.379-87.939c123.227-7.482,176.174,92.253,254.997,65.949
					c64.335-21.468,75.023-103.249,119.881-208.525c34.794-81.659,95.134-189.082,207.615-303.136
					c5.377,10.851,10.753,21.702,16.13,32.553c-12.643,69.467-38.413,172.051-96.04,284.47
					c-62.018,120.986-203.385,396.77-452.292,421.792c-189.829,19.084-349.083-116.833-409.366-168.84
					c-55.754-48.1-105.768-90.526-130.052-158.188c-6.72-18.726-11.052-38.222-13.157-58.302
					C2054.949,2605.831,2151.042,2632.541,2214.86,2618.173z"/>
			</g>
			<g>
				
					<linearGradient id="SVGID_00000183227870198843087530000002758769296186819518_" gradientUnits="userSpaceOnUse" x1="-2732.2712" y1="2625.4626" x2="-1733.7338" y2="2625.4626" gradientTransform="matrix(-1 0 0 1 -421.0958 0)">
					<stop  offset="0" style="stop-color:#FF9085"/>
					<stop  offset="1" style="stop-color:#FB6FBB"/>
				</linearGradient>
				<path style="fill:url(#SVGID_00000183227870198843087530000002758769296186819518_);" d="M2200.053,3205.917
					c3.313-110.293,9.848-273.839,26.59-353.707c43.451-207.284,96.354-259.744,82.19-392.841
					c-12.154-114.206-64.629-202.678-96.337-256.138c-50.078-84.429-106.79-144.094-148.541-182.138
					c-43.618-6.484-87.237-12.969-130.856-19.452c-36.92,8.562-90.689,24.301-150.308,54.817
					c-152.944,78.286-232.604,196.607-277.629,263.483c-196.426,291.752-192.483,697.466-190.979,770.994
					c-1.512,30.249-1.892,59.269-1.233,86.377c88.418,29.384,197.823,54.698,328.631,65.867
					c-10.807-105.781-23.825-234.118-19.707-279.565c9.599-105.976,27.461-200.357,47.743-281.165
					c18.979,71.113,36.51,151.615,49.515,240.494c8.226,56.231,16.742,207.753,22.311,325.756
					C1874.976,3252.136,2027.74,3240.698,2200.053,3205.917z"/>
			</g>
			
				<linearGradient id="SVGID_00000162313004126058807940000017141252712586757528_" gradientUnits="userSpaceOnUse" x1="-2732.2715" y1="2814.7634" x2="-1733.7371" y2="2814.7634" gradientTransform="matrix(-1 0 0 1 -421.0958 0)">
				<stop  offset="0" style="stop-color:#FF9085"/>
				<stop  offset="1" style="stop-color:#FB6FBB"/>
			</linearGradient>
			<path style="opacity:0.3;fill:url(#SVGID_00000162313004126058807940000017141252712586757528_);" d="M2026.5,3042.377
				c47.908-169.795,196.922-276.171,160.168-337.397c-33.022-55.008-157.551,23.783-268.667-47.447
				c-123.052-78.881-84.035-248.394-170.5-274.135c-83.703-24.919-228.931,101.586-263.5,247.776
				c-32.098,135.742,52.092,200.163,31,342.669c-13.957,94.301-66.174,169.792-122.634,226.991
				c72.113,18.93,155.092,34.31,249.212,42.346c-10.807-105.781-23.825-234.118-19.707-279.565
				c9.599-105.976,27.461-200.357,47.743-281.165c18.979,71.113,36.51,151.615,49.515,240.494
				c8.226,56.231,16.742,207.753,22.311,325.756c84.189,2.167,176.039-1.599,275.596-13.379
				C2007.188,3172.533,2008.181,3107.303,2026.5,3042.377z"/>
			
				<linearGradient id="SVGID_00000041985466808115970920000002080966608547707791_" gradientUnits="userSpaceOnUse" x1="-2327.73" y1="2310.7561" x2="-2347.1453" y2="1684.6014" gradientTransform="matrix(-1 0 0 1 -421.0958 0)">
				<stop  offset="0" style="stop-color:#AB316D"/>
				<stop  offset="1" style="stop-color:#792D3D"/>
			</linearGradient>
			<path style="fill:url(#SVGID_00000041985466808115970920000002080966608547707791_);" d="M2042.342,1804.802
				c0,0,3.672,94.5,0,157.937c-2.688,46.44,37.471,72.892,37.471,72.892s22.05,37.786-97.201,44.1
				c-119.25,6.314-235.291,0-235.291,0s116.593-77.548,143.228-98.154c26.635-20.607,40.926-174.678,23.871-272.26
				L2042.342,1804.802z"/>
			
				<linearGradient id="SVGID_00000093868394089262277350000006697230798868571551_" gradientUnits="userSpaceOnUse" x1="-2457.6541" y1="1861.5677" x2="-2280.4863" y2="1281.5243" gradientTransform="matrix(-1 0 0 1 -421.0958 0)">
				<stop  offset="0" style="stop-color:#AB316D"/>
				<stop  offset="1" style="stop-color:#792D3D"/>
			</linearGradient>
			<path style="fill:url(#SVGID_00000093868394089262277350000006697230798868571551_);" d="M2072.87,1499.87
				c0,0,60.691,146.336,60.371,234.753c-0.32,88.417-62.146,139.164-109.04,117.327c-46.894-21.837-117.546-113.791-117.546-113.791
				s-9.493,24.757-45.459,0c-35.966-24.757-62.678-163.775,7.265-124.328c0,0-11.07-38.968,6.173-95.486
				C1891.877,1461.829,2052.416,1400.822,2072.87,1499.87z"/>
			<g>
				<path style="fill:#FFFFFF;" d="M1972.744,1811.705c-84.947,0-116.941-121.723-117.277-123.052
					c-0.805-3.164,1.107-6.38,4.271-7.185c3.156-0.801,6.384,1.108,7.189,4.269c0.339,1.324,34.779,132.169,124.615,111.971
					c3.191-0.701,6.352,1.29,7.064,4.477c0.716,3.183-1.288,6.348-4.473,7.063
					C1986.658,1810.924,1979.529,1811.705,1972.744,1811.705z"/>
				<path style="fill:#FFFFFF;" d="M2047.751,1792.216c2.329,8.954-9.021,19.655-25.35,23.901
					c-16.329,4.246-31.453,0.429-33.782-8.525c-2.328-8.955,9.021-19.656,25.35-23.901
					C2030.298,1779.444,2045.423,1783.262,2047.751,1792.216z"/>
				
					<ellipse transform="matrix(0.9678 -0.2517 0.2517 0.9678 -360.3839 519.4457)" style="fill:#FFFFFF;" cx="1850.683" cy="1668.714" rx="28.541" ry="45.691"/>
			</g>
		</g>
		<g>
			
				<linearGradient id="SVGID_00000106856420884952645340000011884210932917554565_" gradientUnits="userSpaceOnUse" x1="1563.0953" y1="600.1043" x2="722.6097" y2="2088.1777">
				<stop  offset="0" style="stop-color:#FFC444"/>
				<stop  offset="0.9964" style="stop-color:#F36F56"/>
			</linearGradient>
			<path style="fill:url(#SVGID_00000106856420884952645340000011884210932917554565_);" d="M929.37,880.632
				c36.784-198.184,350.479-306.303,582.496-265.361c43.659,7.704,242.42,42.778,301.12,187.222
				c76.872,189.164-113.848,498.537-373.296,533.986c-11.497,1.571-22.987,2.573-34.446,3.057
				c-4.197,54.627,53.498,101.722,53.498,101.722c-129.045,15.29-209.122-73.327-251.665-143.83
				C1030.964,1215.045,901.907,1028.592,929.37,880.632z"/>
			<g>
				<path style="fill:#FFFFFF;" d="M1287.239,948.766c-0.275,28.075-23.3,50.124-51.511,49.228
					c-28.302-0.899-51.062-24.536-50.752-52.775c0.31-28.221,23.544-50.221,51.811-49.157
					C1264.963,897.121,1287.514,920.709,1287.239,948.766z"/>
				<path style="fill:#FFFFFF;" d="M1460.228,954.766c-0.216,27.797-22.741,49.634-50.39,48.756
					c-27.738-0.881-50.087-24.274-49.836-52.233c0.25-27.94,22.977-49.729,50.681-48.686
					C1438.299,903.642,1460.444,926.988,1460.228,954.766z"/>
				<path style="fill:#FFFFFF;" d="M1629.798,960.649c-0.16,27.524-22.199,49.153-49.302,48.293
					c-27.19-0.863-49.14-24.019-48.947-51.701c0.193-27.664,22.428-49.247,49.585-48.225
					C1608.205,910.034,1629.958,933.142,1629.798,960.649z"/>
			</g>
		</g>
	</g>
</g>
</svg>
