<svg xmlns="http://www.w3.org/2000/svg" xmlns:xlink="http://www.w3.org/1999/xlink" width="500" zoomAndPan="magnify" viewBox="0 0 375 374.999991" height="500" preserveAspectRatio="xMidYMid meet" version="1.0"><defs><clipPath id="3f8970e2a9"><path d="M 30.753906 53.132812 L 134 53.132812 L 134 321.632812 L 30.753906 321.632812 Z M 30.753906 53.132812 " clip-rule="nonzero"/></clipPath><clipPath id="12215be980"><path d="M 59 53.132812 L 208 53.132812 L 208 321.632812 L 59 321.632812 Z M 59 53.132812 " clip-rule="nonzero"/></clipPath><clipPath id="c9690e7c67"><path d="M 75 163 L 208 163 L 208 321.632812 L 75 321.632812 Z M 75 163 " clip-rule="nonzero"/></clipPath><clipPath id="94753507f0"><path d="M 45 268 L 134 268 L 134 321.632812 L 45 321.632812 Z M 45 268 " clip-rule="nonzero"/></clipPath><clipPath id="ab813143c7"><path d="M 136 185 L 347.253906 185 L 347.253906 203 L 136 203 Z M 136 185 " clip-rule="nonzero"/></clipPath></defs><path fill="#e15c63" d="M 279.835938 260.863281 C 284.566406 262.355469 285.46875 268.605469 281.40625 271.445312 C 277.503906 274.175781 273.417969 277.839844 271.078125 282.3125 C 261.996094 283.902344 253.027344 279.390625 244.195312 268.25 C 253.757812 258.835938 265.640625 256.375 279.835938 260.863281 Z M 279.835938 260.863281 " fill-opacity="1" fill-rule="nonzero"/><path fill="#e15c63" d="M 332.222656 176.511719 C 337.15625 175.941406 340.53125 181.277344 337.988281 185.535156 C 335.542969 189.621094 333.316406 194.632812 333.011719 199.667969 C 323.292969 205.417969 313.199219 204.875 302.71875 197.828125 L 302.71875 197.820312 C 307.59375 185.324219 317.425781 178.21875 332.222656 176.511719 Z M 332.222656 176.511719 " fill-opacity="1" fill-rule="nonzero"/><path fill="#e15c63" d="M 268.871094 123.132812 C 263.539062 133.242188 254.003906 136.621094 240.261719 133.25 C 239.867188 119.84375 246.148438 109.46875 259.101562 102.128906 C 263.414062 99.683594 268.613281 103.269531 267.929688 108.1875 C 267.277344 112.898438 267.183594 118.375 268.871094 123.132812 Z M 268.871094 123.132812 " fill-opacity="1" fill-rule="nonzero"/><path fill="#ffc05a" d="M 244.191406 268.25 L 271.078125 282.3125 C 268.738281 286.78125 268.050781 292.21875 268.023438 296.984375 C 268.003906 301.941406 262.351562 304.757812 258.425781 301.726562 C 246.644531 292.625 241.898438 281.46875 244.191406 268.25 Z M 244.191406 268.25 " fill-opacity="1" fill-rule="nonzero"/><path fill="#ffc05a" d="M 336.230469 214.296875 C 338.242188 218.832031 334.238281 223.71875 329.414062 222.554688 C 314.941406 219.066406 306.039062 210.824219 302.71875 197.828125 L 333.011719 199.667969 C 332.703125 204.703125 334.304688 209.949219 336.230469 214.296875 Z M 336.230469 214.296875 " fill-opacity="1" fill-rule="nonzero"/><path fill="#ffc05a" d="M 277.546875 135.351562 C 281.171875 138.746094 279.394531 144.796875 274.5 145.613281 C 259.804688 148.042969 248.390625 143.925781 240.257812 133.25 L 268.871094 123.132812 L 268.871094 123.140625 C 270.554688 127.890625 274.074219 132.097656 277.546875 135.351562 Z M 277.546875 135.351562 " fill-opacity="1" fill-rule="nonzero"/><g clip-path="url(#3f8970e2a9)"><path fill="#e7f2f1" d="M 105.066406 53.132812 C 64.105469 53.132812 30.894531 113.242188 30.894531 187.382812 C 30.894531 261.527344 64.105469 321.632812 105.066406 321.632812 L 133.367188 321.632812 L 133.367188 53.132812 Z M 105.066406 53.132812 " fill-opacity="1" fill-rule="nonzero"/></g><g clip-path="url(#12215be980)"><path fill="#655f68" d="M 203.953125 146.085938 C 194.335938 92.144531 166.367188 53.132812 133.367188 53.132812 C 92.40625 53.132812 59.195312 113.242188 59.195312 187.382812 C 59.195312 261.527344 92.40625 321.632812 133.367188 321.632812 C 162.871094 321.632812 188.351562 290.449219 200.289062 245.292969 C 204.585938 229.074219 207.132812 211.054688 207.488281 192.035156 C 207.519531 190.492188 207.53125 188.9375 207.53125 187.382812 C 207.53125 172.972656 206.28125 159.09375 203.953125 146.085938 Z M 203.953125 146.085938 " fill-opacity="1" fill-rule="nonzero"/></g><path fill="#1ea6bc" d="M 188.402344 151.582031 C 180.625 107.648438 158.925781 76.03125 133.367188 76.03125 C 101.277344 76.03125 75.265625 125.882812 75.265625 187.382812 C 75.265625 248.886719 101.277344 298.738281 133.367188 298.738281 C 156.0625 298.738281 175.71875 273.796875 185.28125 237.4375 C 188.972656 223.417969 191.160156 207.703125 191.433594 191.054688 C 191.457031 189.835938 191.46875 188.617188 191.46875 187.382812 C 191.46875 174.863281 190.390625 162.820312 188.402344 151.582031 Z M 188.402344 151.582031 " fill-opacity="1" fill-rule="nonzero"/><path fill="#e15c63" d="M 172.332031 157.261719 C 166.261719 126.285156 151.101562 104.332031 133.367188 104.332031 C 110.277344 104.332031 91.558594 141.519531 91.558594 187.382812 C 91.558594 233.25 110.273438 270.4375 133.367188 270.4375 C 148.78125 270.4375 162.25 253.859375 169.492188 229.183594 C 172.894531 217.628906 174.921875 204.296875 175.144531 190.0625 C 175.164062 189.171875 175.167969 188.28125 175.167969 187.382812 C 175.167969 176.757812 174.164062 166.597656 172.332031 157.261719 Z M 172.332031 157.261719 " fill-opacity="1" fill-rule="nonzero"/><path fill="#ffc05a" d="M 150.238281 219.105469 C 145.976562 227.714844 139.992188 233.066406 133.367188 233.066406 C 120.410156 233.066406 109.910156 212.609375 109.910156 187.382812 C 109.910156 162.160156 120.414062 141.703125 133.367188 141.703125 C 141.910156 141.703125 149.390625 150.609375 153.496094 163.921875 C 155.605469 170.78125 156.820312 178.804688 156.820312 187.382812 C 156.820312 187.910156 156.8125 188.433594 156.808594 188.953125 C 156.605469 200.644531 154.144531 211.234375 150.238281 219.105469 Z M 150.238281 219.105469 " fill-opacity="1" fill-rule="nonzero"/><path fill="#1498b7" d="M 100.90625 279.753906 C 124.710938 285 159.855469 283.867188 183.535156 243.574219 C 173.457031 276.578125 154.757812 298.738281 133.367188 298.738281 C 121.339844 298.738281 110.175781 291.738281 100.90625 279.753906 Z M 100.90625 279.753906 " fill-opacity="1" fill-rule="nonzero"/><g clip-path="url(#c9690e7c67)"><path fill="#5d5560" d="M 206.355469 163.464844 C 205.238281 173.699219 203.777344 183.089844 202.015625 191.699219 C 198.148438 210.746094 192.828125 225.980469 186.550781 238.101562 C 185.570312 240 184.566406 241.824219 183.535156 243.574219 C 173.457031 276.578125 154.757812 298.738281 133.367188 298.738281 C 121.339844 298.738281 110.175781 291.738281 100.90625 279.753906 C 85.683594 276.402344 75.09375 270.4375 75.09375 270.4375 C 88.675781 301.621094 109.730469 321.636719 133.367188 321.636719 C 162.871094 321.636719 188.355469 290.449219 200.292969 245.292969 C 204.585938 229.074219 207.132812 211.058594 207.488281 192.035156 C 207.519531 190.492188 207.53125 188.9375 207.53125 187.386719 C 207.53125 179.222656 207.125 171.230469 206.355469 163.464844 Z M 206.355469 163.464844 " fill-opacity="1" fill-rule="nonzero"/></g><g clip-path="url(#94753507f0)"><path fill="#d6eae8" d="M 133.367188 321.632812 L 105.066406 321.632812 C 80.878906 321.632812 59.394531 300.679688 45.863281 268.25 C 45.863281 268.25 57.957031 274.851562 75.09375 270.4375 C 88.675781 301.621094 109.730469 321.632812 133.367188 321.632812 Z M 133.367188 321.632812 " fill-opacity="1" fill-rule="nonzero"/></g><g clip-path="url(#ab813143c7)"><path fill="#ffdbac" d="M 344.675781 197.84375 L 302.933594 195.308594 C 302.914062 195.308594 302.894531 195.300781 302.875 195.300781 L 139.246094 185.347656 C 137.847656 185.269531 136.652344 186.324219 136.566406 187.71875 C 136.480469 189.109375 137.542969 190.308594 138.9375 190.394531 L 302.503906 200.339844 C 302.527344 200.34375 302.546875 200.347656 302.566406 200.351562 L 344.367188 202.890625 C 344.421875 202.890625 344.472656 202.894531 344.523438 202.894531 C 345.851562 202.894531 346.964844 201.863281 347.046875 200.519531 C 347.132812 199.128906 346.070312 197.929688 344.675781 197.84375 Z M 344.675781 197.84375 " fill-opacity="1" fill-rule="nonzero"/></g><path fill="#ffdbac" d="M 134.355469 173.214844 C 134.632812 173.214844 134.917969 173.167969 135.199219 173.070312 L 280.585938 121.675781 C 281.902344 121.210938 282.589844 119.765625 282.125 118.453125 C 281.660156 117.136719 280.214844 116.445312 278.898438 116.910156 L 133.511719 168.304688 C 132.195312 168.769531 131.503906 170.214844 131.96875 171.53125 C 132.335938 172.566406 133.3125 173.214844 134.355469 173.214844 Z M 134.355469 173.214844 " fill-opacity="1" fill-rule="nonzero"/><path fill="#ffdbac" d="M 282.464844 285.414062 L 134.539062 208.046875 C 133.300781 207.398438 131.773438 207.878906 131.125 209.113281 C 130.476562 210.351562 130.957031 211.878906 132.195312 212.523438 L 280.117188 289.890625 C 280.492188 290.085938 280.894531 290.179688 281.289062 290.179688 C 282.199219 290.179688 283.078125 289.6875 283.53125 288.824219 C 284.179688 287.585938 283.699219 286.058594 282.464844 285.414062 Z M 282.464844 285.414062 " fill-opacity="1" fill-rule="nonzero"/></svg>