<svg xmlns="http://www.w3.org/2000/svg" xmlns:xlink="http://www.w3.org/1999/xlink" width="500" zoomAndPan="magnify" viewBox="0 0 375 374.999991" height="500" preserveAspectRatio="xMidYMid meet" version="1.0"><defs><clipPath id="046b1a8760"><path d="M 195 239 L 303 239 L 303 346.886719 L 195 346.886719 Z M 195 239 " clip-rule="nonzero"/></clipPath><clipPath id="e6bde4228c"><path d="M 195 239 L 286 239 L 286 346.886719 L 195 346.886719 Z M 195 239 " clip-rule="nonzero"/></clipPath><clipPath id="e2f45c7382"><path d="M 37.5 239 L 145 239 L 145 346.886719 L 37.5 346.886719 Z M 37.5 239 " clip-rule="nonzero"/></clipPath><clipPath id="22d8d3c4c4"><path d="M 37.5 239 L 128 239 L 128 346.886719 L 37.5 346.886719 Z M 37.5 239 " clip-rule="nonzero"/></clipPath><clipPath id="24ff0eeaad"><path d="M 224 28.136719 L 337.5 28.136719 L 337.5 162 L 224 162 Z M 224 28.136719 " clip-rule="nonzero"/></clipPath><clipPath id="dff1902068"><path d="M 163.792969 303.238281 L 187.792969 303.238281 L 187.792969 327.988281 L 163.792969 327.988281 Z M 163.792969 303.238281 " clip-rule="nonzero"/></clipPath></defs><path fill="#d8ecfe" d="M 282.355469 160.929688 C 281.984375 161.117188 281.609375 161.242188 281.175781 161.242188 C 280.742188 161.242188 280.367188 161.117188 279.996094 160.929688 C 249.257812 145.09375 230.628906 120.25 226.40625 90.191406 C 209.390625 81.871094 190.261719 77.210938 170.082031 77.210938 C 99.039062 77.210938 41.472656 134.785156 41.472656 205.832031 C 41.472656 276.882812 99.039062 334.453125 170.082031 334.453125 C 241.121094 334.453125 298.6875 276.882812 298.6875 205.832031 C 298.6875 188.628906 295.273438 172.171875 289.125 157.144531 C 286.953125 158.445312 284.714844 159.6875 282.355469 160.929688 Z M 282.355469 160.929688 " fill-opacity="1" fill-rule="nonzero"/><path fill="#c4e2ff" d="M 64.574219 241.296875 C 66.375 239.496094 69.292969 239.496094 71.09375 241.296875 L 72.957031 243.160156 C 69.355469 231.359375 67.433594 218.75 67.433594 205.773438 C 67.433594 139.132812 118.105469 84.355469 183.058594 77.832031 C 178.773438 77.398438 174.492188 77.210938 170.082031 77.210938 C 99.039062 77.210938 41.472656 134.785156 41.472656 205.832031 C 41.472656 223.160156 44.890625 239.679688 51.101562 254.773438 Z M 64.574219 241.296875 " fill-opacity="1" fill-rule="nonzero"/><path fill="#ffe5c2" d="M 228.207031 252.039062 C 221.066406 259.183594 211.625 263.09375 201.566406 263.09375 C 201.128906 263.09375 200.632812 263.09375 200.199219 263.09375 L 191.070312 262.785156 C 190.574219 262.785156 190.140625 262.785156 189.640625 262.785156 C 182.5625 262.785156 175.792969 264.648438 169.894531 268.1875 L 206.59375 304.890625 L 264.285156 247.195312 L 248.761719 231.667969 Z M 228.207031 252.039062 " fill-opacity="1" fill-rule="nonzero"/><path fill="#fed2a4" d="M 200.136719 263.652344 L 191.007812 263.34375 C 183.679688 263.09375 176.476562 264.894531 170.265625 268.558594 L 206.035156 304.332031 L 225.96875 284.398438 L 205.105469 263.53125 C 203.429688 263.652344 201.8125 263.714844 200.136719 263.652344 Z M 200.136719 263.652344 " fill-opacity="1" fill-rule="nonzero"/><g clip-path="url(#046b1a8760)"><path fill="#fe646f" d="M 222.617188 344.886719 L 197.34375 319.613281 C 195.542969 317.808594 195.542969 314.890625 197.34375 313.089844 L 269.066406 241.296875 C 270.867188 239.496094 273.785156 239.496094 275.585938 241.296875 L 300.863281 266.574219 C 302.664062 268.375 302.664062 271.292969 300.863281 273.09375 L 229.136719 344.886719 C 227.335938 346.691406 224.417969 346.691406 222.617188 344.886719 Z M 222.617188 344.886719 " fill-opacity="1" fill-rule="nonzero"/></g><g clip-path="url(#e6bde4228c)"><path fill="#fd4755" d="M 224.167969 319.613281 C 222.367188 317.808594 222.367188 314.890625 224.167969 313.089844 L 285.773438 251.480469 L 275.585938 241.296875 C 273.785156 239.496094 270.867188 239.496094 269.066406 241.296875 L 197.34375 313.089844 C 195.542969 314.890625 195.542969 317.808594 197.34375 319.613281 L 222.617188 344.886719 C 224.417969 346.691406 227.335938 346.691406 229.136719 344.886719 L 239.320312 334.703125 Z M 224.167969 319.613281 " fill-opacity="1" fill-rule="nonzero"/></g><path fill="#d88a55" d="M 272.359375 189.871094 C 267.949219 185.152344 261.117188 184.222656 255.714844 187.140625 C 255.15625 187.449219 254.597656 186.828125 254.847656 186.332031 C 257.640625 181.117188 256.832031 174.46875 252.425781 170.0625 C 248.015625 165.652344 241.371094 164.84375 236.15625 167.636719 C 235.59375 167.949219 235.035156 167.328125 235.347656 166.832031 C 238.140625 161.613281 237.335938 154.96875 232.925781 150.558594 C 228.515625 146.148438 221.871094 145.34375 216.65625 148.136719 C 216.097656 148.449219 215.539062 147.828125 215.847656 147.269531 C 218.703125 141.925781 217.773438 135.03125 213.054688 130.625 C 207.589844 125.53125 198.957031 125.902344 193.617188 131.183594 L 192.375 132.425781 L 191.320312 132.609375 L 174.550781 149.378906 L 174.675781 150.125 L 184.796875 160.246094 C 187.40625 162.855469 189.019531 166.457031 188.898438 170.183594 C 188.773438 173.785156 187.28125 177.140625 184.613281 179.5625 C 182.253906 181.738281 179.148438 182.917969 175.855469 182.917969 C 172.191406 182.917969 168.652344 181.425781 166.042969 178.816406 L 165.175781 179.6875 L 168.902344 183.414062 C 171.386719 185.898438 172.9375 189.1875 173 192.667969 C 173.0625 197.015625 171.074219 201.050781 167.472656 203.722656 C 165.796875 204.964844 163.808594 205.773438 161.699219 206.019531 C 157.476562 206.640625 153.375 205.210938 150.457031 202.292969 L 144.0625 195.898438 L 143.191406 196.765625 C 146.296875 199.871094 147.664062 204.21875 146.792969 208.753906 C 146.484375 210.304688 145.925781 211.796875 145.054688 213.101562 C 142.324219 217.386719 137.601562 219.683594 132.636719 219.25 C 129.46875 219 126.550781 217.449219 124.3125 215.210938 L 116.863281 207.757812 L 115.992188 208.628906 C 118.726562 211.421875 120.089844 215.148438 119.78125 219.0625 C 119.59375 221.484375 118.664062 223.84375 117.171875 225.832031 C 114.625 229.183594 110.777344 231.109375 106.617188 231.109375 C 103.136719 231.109375 99.847656 229.746094 97.363281 227.320312 L 76.808594 247.878906 L 132.945312 304.023438 L 162.503906 274.460938 C 170.019531 266.945312 180.390625 262.847656 191.007812 263.28125 L 200.136719 263.652344 C 210.757812 264.027344 221.125 259.988281 228.640625 252.476562 L 271.800781 209.3125 C 277.078125 204.03125 277.511719 195.398438 272.359375 189.871094 Z M 272.359375 189.871094 " fill-opacity="1" fill-rule="nonzero"/><path fill="#c57a44" d="M 185.542969 160.0625 C 187.902344 162.421875 189.207031 165.402344 189.519531 168.445312 L 217.460938 140.5 C 217.402344 137.019531 216.097656 133.542969 213.425781 130.871094 C 208.023438 125.46875 199.269531 125.46875 193.863281 130.871094 L 175.171875 149.566406 Z M 185.542969 160.0625 " fill-opacity="1" fill-rule="nonzero"/><path fill="#c57a44" d="M 120.652344 237.320312 L 138.96875 219 C 134 220.925781 128.164062 219.871094 124.191406 215.894531 L 116.550781 208.253906 C 121.953125 213.722656 121.890625 222.539062 116.367188 227.882812 C 110.964844 233.097656 102.394531 233.035156 97.054688 227.757812 L 77.304688 247.507812 L 133.441406 303.648438 L 151.140625 285.949219 L 120.652344 255.457031 C 115.621094 250.425781 115.621094 242.351562 120.652344 237.320312 Z M 120.652344 237.320312 " fill-opacity="1" fill-rule="nonzero"/><path fill="#ffe5c2" d="M 185.542969 160.0625 L 153.5625 128.015625 C 148.160156 122.613281 139.40625 122.613281 134 128.015625 C 128.597656 133.417969 128.597656 142.175781 134 147.578125 C 128.597656 142.175781 119.84375 142.175781 114.441406 147.578125 C 109.039062 152.980469 109.039062 161.738281 114.441406 167.140625 C 109.039062 161.738281 100.28125 161.738281 94.878906 167.140625 C 89.476562 172.546875 89.476562 181.300781 94.878906 186.707031 L 100.839844 192.667969 C 95.4375 187.265625 86.683594 187.265625 81.28125 192.667969 C 75.878906 198.070312 75.878906 206.828125 81.28125 212.230469 L 96.867188 227.820312 C 102.207031 233.160156 110.839844 233.222656 116.242188 227.941406 C 121.769531 222.601562 121.832031 213.722656 116.367188 208.253906 L 124.066406 215.957031 C 129.40625 221.296875 138.039062 221.359375 143.441406 216.082031 C 148.96875 210.738281 149.03125 201.859375 143.566406 196.394531 L 149.960938 202.789062 C 155.300781 208.132812 163.933594 208.195312 169.335938 202.914062 C 174.863281 197.574219 174.925781 188.691406 169.460938 183.226562 L 165.546875 179.316406 C 170.828125 184.59375 179.457031 185.089844 184.921875 180.058594 C 190.945312 174.65625 191.070312 165.589844 185.542969 160.0625 Z M 185.542969 160.0625 " fill-opacity="1" fill-rule="nonzero"/><path fill="#ffbd86" d="M 179.023438 122.054688 L 154.371094 122.054688 C 150.210938 122.054688 146.792969 125.46875 146.792969 129.628906 L 146.792969 132.796875 C 146.792969 142.175781 154.371094 149.753906 163.746094 149.753906 L 175.171875 149.691406 L 192.4375 132.425781 C 190.882812 126.460938 185.480469 122.054688 179.023438 122.054688 Z M 179.023438 122.054688 " fill-opacity="1" fill-rule="nonzero"/><path fill="#fed2a4" d="M 177.65625 173.664062 L 145.925781 141.925781 C 141.019531 137.019531 140.585938 129.382812 144.558594 123.976562 C 140.769531 123.730469 136.859375 125.097656 133.941406 128.015625 C 128.535156 133.417969 128.535156 142.175781 133.941406 147.578125 L 165.671875 179.316406 C 170.949219 184.59375 179.582031 185.089844 185.046875 180.058594 C 185.792969 179.375 186.414062 178.695312 186.972656 177.886719 C 183.617188 177.636719 180.203125 176.210938 177.65625 173.664062 Z M 177.65625 173.664062 " fill-opacity="1" fill-rule="nonzero"/><path fill="#fed2a4" d="M 163.5 196.019531 L 127.855469 160.371094 C 123.320312 155.839844 122.636719 148.882812 125.742188 143.605469 C 121.707031 143.167969 117.546875 144.472656 114.503906 147.578125 C 109.101562 152.980469 109.101562 161.738281 114.503906 167.140625 L 150.148438 202.789062 C 155.488281 208.132812 164.121094 208.195312 169.523438 202.914062 C 170.453125 202.046875 171.199219 201.050781 171.820312 199.996094 C 168.714844 199.625 165.796875 198.320312 163.5 196.019531 Z M 163.5 196.019531 " fill-opacity="1" fill-rule="nonzero"/><path fill="#fed2a4" d="M 137.230469 209.4375 L 107.980469 180.183594 C 103.324219 175.527344 102.703125 168.445312 106.058594 163.105469 C 102.082031 162.730469 97.984375 164.035156 94.941406 167.078125 C 89.539062 172.484375 89.539062 181.238281 94.941406 186.644531 L 124.191406 215.894531 C 129.53125 221.234375 138.164062 221.296875 143.566406 216.019531 C 144.371094 215.210938 145.054688 214.34375 145.675781 213.410156 C 142.570312 213.101562 139.589844 211.796875 137.230469 209.4375 Z M 137.230469 209.4375 " fill-opacity="1" fill-rule="nonzero"/><path fill="#fed2a4" d="M 110.09375 221.296875 L 94.507812 205.710938 C 89.847656 201.050781 89.226562 193.972656 92.582031 188.628906 C 88.546875 188.195312 84.445312 189.5 81.34375 192.605469 C 75.9375 198.007812 75.9375 206.765625 81.34375 212.167969 L 96.929688 227.757812 C 102.269531 233.097656 110.902344 233.160156 116.304688 227.882812 C 117.109375 227.074219 117.792969 226.203125 118.414062 225.273438 C 115.371094 224.960938 112.453125 223.65625 110.09375 221.296875 Z M 110.09375 221.296875 " fill-opacity="1" fill-rule="nonzero"/><g clip-path="url(#e2f45c7382)"><path fill="#97d729" d="M 142.882812 319.613281 L 117.546875 344.886719 C 115.746094 346.691406 112.824219 346.691406 111.023438 344.886719 L 39.300781 273.15625 C 37.5 271.355469 37.5 268.4375 39.300781 266.636719 L 64.574219 241.296875 C 66.375 239.496094 69.292969 239.496094 71.09375 241.296875 L 142.882812 313.089844 C 144.683594 314.890625 144.683594 317.808594 142.882812 319.613281 Z M 142.882812 319.613281 " fill-opacity="1" fill-rule="nonzero"/></g><g clip-path="url(#22d8d3c4c4)"><path fill="#8bc727" d="M 65.628906 273.15625 C 63.828125 271.355469 63.828125 268.4375 65.628906 266.636719 L 80.96875 251.234375 L 71.09375 241.296875 C 69.292969 239.496094 66.375 239.496094 64.574219 241.296875 L 39.300781 266.636719 C 37.5 268.4375 37.5 271.355469 39.300781 273.15625 L 111.085938 344.949219 C 112.886719 346.75 115.808594 346.75 117.609375 344.949219 L 127.480469 335.074219 Z M 65.628906 273.15625 " fill-opacity="1" fill-rule="nonzero"/></g><g clip-path="url(#24ff0eeaad)"><path fill="#fed402" d="M 281.175781 28.273438 C 264.472656 28.273438 248.699219 44.917969 234.851562 40.382812 C 233.234375 39.824219 231.433594 40.757812 230.875 42.371094 C 227.027344 53.117188 224.914062 64.730469 224.914062 76.839844 C 224.914062 116.152344 247.144531 144.597656 279.746094 161.429688 C 280.679688 161.925781 281.734375 161.925781 282.667969 161.429688 C 315.269531 144.597656 337.5 116.152344 337.5 76.839844 C 337.5 64.730469 335.386719 53.175781 331.539062 42.371094 C 330.980469 40.757812 329.179688 39.824219 327.5625 40.382812 C 313.652344 44.917969 297.878906 28.273438 281.175781 28.273438 Z M 281.175781 28.273438 " fill-opacity="1" fill-rule="nonzero"/></g><path fill="#fac600" d="M 272.855469 125.34375 C 255.964844 121.554688 243.359375 106.464844 243.359375 88.453125 C 243.359375 79.136719 246.773438 70.566406 252.363281 63.921875 C 252.734375 54.171875 254.410156 44.730469 257.332031 35.851562 C 249.445312 39.515625 241.867188 42.683594 234.789062 40.382812 C 233.171875 39.824219 231.371094 40.757812 230.8125 42.371094 C 226.964844 53.117188 224.851562 64.730469 224.851562 76.839844 C 224.851562 116.152344 247.082031 144.597656 279.6875 161.429688 C 280.617188 161.925781 281.671875 161.925781 282.605469 161.429688 C 289.496094 157.886719 295.894531 153.789062 301.730469 149.191406 C 290.554688 142.734375 280.742188 134.785156 272.855469 125.34375 Z M 272.855469 125.34375 " fill-opacity="1" fill-rule="nonzero"/><path fill="#97d729" d="M 314.335938 88.453125 C 314.335938 89.539062 314.285156 90.625 314.175781 91.703125 C 314.070312 92.785156 313.910156 93.859375 313.699219 94.921875 C 313.488281 95.988281 313.222656 97.042969 312.910156 98.082031 C 312.59375 99.121094 312.226562 100.140625 311.8125 101.144531 C 311.398438 102.148438 310.933594 103.128906 310.421875 104.085938 C 309.910156 105.046875 309.351562 105.976562 308.75 106.878906 C 308.144531 107.78125 307.5 108.652344 306.808594 109.492188 C 306.121094 110.332031 305.390625 111.136719 304.625 111.90625 C 303.855469 112.671875 303.054688 113.402344 302.214844 114.089844 C 301.375 114.777344 300.503906 115.425781 299.597656 116.027344 C 298.695312 116.632812 297.765625 117.191406 296.808594 117.703125 C 295.851562 118.214844 294.871094 118.679688 293.867188 119.09375 C 292.863281 119.507812 291.839844 119.875 290.800781 120.191406 C 289.761719 120.503906 288.710938 120.769531 287.644531 120.980469 C 286.582031 121.191406 285.507812 121.351562 284.425781 121.457031 C 283.347656 121.566406 282.261719 121.617188 281.175781 121.617188 C 280.089844 121.617188 279.007812 121.566406 277.925781 121.457031 C 276.84375 121.351562 275.773438 121.191406 274.707031 120.980469 C 273.640625 120.769531 272.589844 120.503906 271.550781 120.191406 C 270.511719 119.875 269.488281 119.507812 268.484375 119.09375 C 267.484375 118.679688 266.503906 118.214844 265.542969 117.703125 C 264.585938 117.191406 263.65625 116.632812 262.753906 116.027344 C 261.851562 115.425781 260.980469 114.777344 260.140625 114.089844 C 259.300781 113.402344 258.496094 112.671875 257.726562 111.90625 C 256.960938 111.136719 256.230469 110.332031 255.542969 109.492188 C 254.855469 108.652344 254.207031 107.78125 253.605469 106.878906 C 253 105.976562 252.441406 105.046875 251.929688 104.085938 C 251.417969 103.128906 250.957031 102.148438 250.539062 101.144531 C 250.125 100.140625 249.757812 99.121094 249.441406 98.082031 C 249.128906 97.042969 248.863281 95.988281 248.652344 94.921875 C 248.441406 93.859375 248.28125 92.785156 248.175781 91.703125 C 248.070312 90.625 248.015625 89.539062 248.015625 88.453125 C 248.015625 87.367188 248.070312 86.285156 248.175781 85.203125 C 248.28125 84.121094 248.441406 83.050781 248.652344 81.984375 C 248.863281 80.917969 249.128906 79.867188 249.441406 78.828125 C 249.757812 77.789062 250.125 76.765625 250.539062 75.761719 C 250.957031 74.757812 251.417969 73.777344 251.929688 72.820312 C 252.441406 71.863281 253 70.929688 253.605469 70.027344 C 254.207031 69.125 254.855469 68.253906 255.542969 67.414062 C 256.230469 66.574219 256.960938 65.769531 257.726562 65.003906 C 258.496094 64.234375 259.300781 63.507812 260.140625 62.816406 C 260.980469 62.128906 261.851562 61.480469 262.753906 60.878906 C 263.65625 60.273438 264.585938 59.71875 265.542969 59.207031 C 266.503906 58.691406 267.484375 58.230469 268.484375 57.8125 C 269.488281 57.398438 270.511719 57.03125 271.550781 56.71875 C 272.589844 56.402344 273.640625 56.136719 274.707031 55.925781 C 275.773438 55.714844 276.84375 55.554688 277.925781 55.449219 C 279.007812 55.34375 280.089844 55.289062 281.175781 55.289062 C 282.261719 55.289062 283.347656 55.34375 284.425781 55.449219 C 285.507812 55.554688 286.582031 55.714844 287.644531 55.925781 C 288.710938 56.136719 289.761719 56.402344 290.800781 56.71875 C 291.839844 57.03125 292.863281 57.398438 293.867188 57.8125 C 294.871094 58.230469 295.851562 58.691406 296.808594 59.207031 C 297.765625 59.71875 298.695312 60.273438 299.597656 60.878906 C 300.503906 61.480469 301.375 62.128906 302.214844 62.816406 C 303.054688 63.507812 303.855469 64.234375 304.625 65.003906 C 305.390625 65.769531 306.121094 66.574219 306.808594 67.414062 C 307.5 68.253906 308.144531 69.125 308.75 70.027344 C 309.351562 70.929688 309.910156 71.863281 310.421875 72.820312 C 310.933594 73.777344 311.398438 74.757812 311.8125 75.761719 C 312.226562 76.765625 312.59375 77.789062 312.910156 78.828125 C 313.222656 79.867188 313.488281 80.917969 313.699219 81.984375 C 313.910156 83.050781 314.070312 84.121094 314.175781 85.203125 C 314.285156 86.285156 314.335938 87.367188 314.335938 88.453125 Z M 314.335938 88.453125 " fill-opacity="1" fill-rule="nonzero"/><path fill="#8bc727" d="M 271.550781 88.453125 C 271.550781 74.292969 280.429688 62.183594 292.976562 57.402344 C 289.3125 56.035156 285.335938 55.226562 281.238281 55.226562 C 262.917969 55.226562 248.078125 70.070312 248.078125 88.390625 C 248.078125 106.710938 262.917969 121.554688 281.238281 121.554688 C 285.398438 121.554688 289.3125 120.8125 292.976562 119.382812 C 280.429688 114.722656 271.550781 102.613281 271.550781 88.453125 Z M 271.550781 88.453125 " fill-opacity="1" fill-rule="nonzero"/><path fill="#e8b800" d="M 281.175781 126.277344 C 260.3125 126.277344 243.359375 109.320312 243.359375 88.453125 C 243.359375 67.585938 260.3125 50.632812 281.175781 50.632812 C 302.042969 50.632812 318.996094 67.585938 318.996094 88.453125 C 318.996094 109.320312 302.042969 126.277344 281.175781 126.277344 Z M 281.175781 59.886719 C 265.464844 59.886719 252.671875 72.679688 252.671875 88.390625 C 252.671875 104.105469 265.464844 116.898438 281.175781 116.898438 C 296.886719 116.898438 309.679688 104.105469 309.679688 88.390625 C 309.679688 72.679688 296.949219 59.886719 281.175781 59.886719 Z M 281.175781 59.886719 " fill-opacity="1" fill-rule="nonzero"/><path fill="#ffffff" d="M 278.941406 103.046875 C 277.699219 103.046875 276.519531 102.550781 275.648438 101.683594 L 261.925781 87.957031 C 260.125 86.15625 260.125 83.175781 261.925781 81.375 C 263.726562 79.574219 266.707031 79.574219 268.507812 81.375 L 278.941406 91.808594 L 293.84375 76.902344 C 295.644531 75.101562 298.625 75.101562 300.425781 76.902344 C 302.226562 78.703125 302.226562 81.683594 300.425781 83.484375 L 282.230469 101.683594 C 281.363281 102.550781 280.183594 103.046875 278.941406 103.046875 Z M 278.941406 103.046875 " fill-opacity="1" fill-rule="nonzero"/><path fill="#000000" d="M 170.949219 305.1875 L 169.378906 305.179688 C 169.167969 305.179688 168.984375 305.355469 168.984375 305.5625 L 168.984375 308.890625 C 168.984375 309.101562 169.15625 309.273438 169.375 309.273438 L 170.945312 309.285156 C 170.949219 309.285156 170.949219 309.285156 170.953125 309.285156 C 171.242188 309.285156 171.519531 309.171875 171.730469 308.960938 C 171.96875 308.730469 172.101562 308.40625 172.101562 308.066406 C 172.101562 307.746094 171.980469 307.453125 171.785156 307.238281 C 171.984375 307.011719 172.101562 306.714844 172.101562 306.40625 C 172.101562 305.738281 171.585938 305.191406 170.949219 305.1875 Z M 171.316406 306.40625 C 171.316406 306.539062 171.265625 306.664062 171.179688 306.75 C 171.132812 306.796875 171.054688 306.867188 170.949219 306.851562 L 169.769531 306.84375 L 169.769531 305.953125 L 170.945312 305.960938 C 171.152344 305.960938 171.316406 306.164062 171.316406 306.40625 Z M 171.179688 308.414062 C 171.132812 308.460938 171.054688 308.511719 170.953125 308.511719 C 170.953125 308.511719 170.953125 308.511719 170.949219 308.511719 L 169.769531 308.503906 L 169.769531 307.617188 L 170.945312 307.621094 C 171.148438 307.625 171.316406 307.828125 171.316406 308.066406 C 171.316406 308.203125 171.265625 308.328125 171.179688 308.414062 Z M 171.179688 308.414062 " fill-opacity="1" fill-rule="nonzero"/><path fill="#000000" d="M 175.515625 305.949219 C 175.730469 305.949219 175.90625 305.777344 175.90625 305.5625 C 175.90625 305.351562 175.730469 305.179688 175.515625 305.179688 L 173.574219 305.179688 C 173.359375 305.179688 173.183594 305.351562 173.183594 305.5625 L 173.183594 308.890625 C 173.183594 309.101562 173.359375 309.273438 173.574219 309.273438 L 175.515625 309.273438 C 175.730469 309.273438 175.90625 309.101562 175.90625 308.890625 C 175.90625 308.675781 175.730469 308.503906 175.515625 308.503906 L 173.96875 308.503906 L 173.96875 307.613281 L 175.515625 307.613281 C 175.730469 307.613281 175.90625 307.441406 175.90625 307.226562 C 175.90625 307.011719 175.730469 306.839844 175.515625 306.839844 L 173.96875 306.839844 L 173.96875 305.949219 Z M 175.515625 305.949219 " fill-opacity="1" fill-rule="nonzero"/><path fill="#000000" d="M 178.289062 306.84375 C 177.734375 306.746094 177.710938 306.523438 177.734375 306.300781 C 177.777344 306.019531 178.058594 305.941406 178.214844 305.941406 C 178.320312 305.941406 178.632812 305.960938 178.695312 306.3125 C 178.734375 306.519531 178.9375 306.660156 179.152344 306.621094 C 179.363281 306.585938 179.507812 306.382812 179.46875 306.175781 C 179.355469 305.566406 178.859375 305.152344 178.207031 305.167969 C 177.566406 305.175781 177.050781 305.59375 176.957031 306.203125 C 176.910156 306.636719 177.003906 307.398438 178.164062 307.605469 C 178.789062 307.691406 178.789062 307.960938 178.789062 308.121094 C 178.789062 308.230469 178.746094 308.316406 178.664062 308.382812 C 178.5625 308.460938 178.40625 308.503906 178.21875 308.503906 C 178.21875 308.503906 178.214844 308.503906 178.214844 308.503906 C 177.871094 308.503906 177.671875 308.328125 177.648438 308.003906 C 177.628906 307.792969 177.445312 307.628906 177.226562 307.648438 C 177.011719 307.664062 176.847656 307.851562 176.863281 308.0625 C 176.917969 308.789062 177.460938 309.273438 178.210938 309.273438 C 178.214844 309.273438 178.21875 309.273438 178.222656 309.273438 C 178.585938 309.273438 178.902344 309.175781 179.148438 308.988281 C 179.421875 308.78125 179.574219 308.472656 179.574219 308.121094 C 179.574219 307.710938 179.40625 306.996094 178.289062 306.84375 Z M 178.289062 306.84375 " fill-opacity="1" fill-rule="nonzero"/><g clip-path="url(#dff1902068)"><path fill="#000000" d="M 186.777344 310.320312 L 185.613281 310.320312 L 185.613281 304.175781 C 185.613281 303.660156 185.183594 303.238281 184.660156 303.238281 L 166.929688 303.238281 C 166.402344 303.238281 165.976562 303.660156 165.976562 304.175781 L 165.976562 310.320312 L 164.8125 310.320312 C 164.289062 310.320312 163.859375 310.738281 163.859375 311.257812 L 163.859375 317.238281 C 163.859375 317.753906 164.289062 318.171875 164.8125 318.171875 L 167.710938 318.171875 L 167.710938 327.566406 C 167.710938 327.710938 167.796875 327.84375 167.929688 327.910156 C 168.0625 327.976562 168.222656 327.960938 168.339844 327.871094 L 175.792969 322.332031 L 183.25 327.871094 C 183.316406 327.925781 183.402344 327.949219 183.484375 327.949219 C 183.542969 327.949219 183.605469 327.9375 183.660156 327.910156 C 183.792969 327.84375 183.878906 327.710938 183.878906 327.566406 L 183.878906 318.171875 L 186.777344 318.171875 C 187.300781 318.171875 187.730469 317.753906 187.730469 317.238281 L 187.730469 311.257812 C 187.730469 310.738281 187.300781 310.320312 186.777344 310.320312 Z M 166.761719 304.175781 C 166.761719 304.085938 166.835938 304.011719 166.929688 304.011719 L 184.660156 304.011719 C 184.753906 304.011719 184.828125 304.085938 184.828125 304.175781 L 184.828125 310.320312 L 166.761719 310.320312 Z M 168.496094 318.171875 L 170.871094 318.171875 L 170.871094 325.023438 L 168.496094 326.789062 Z M 175.558594 321.539062 L 171.65625 324.4375 L 171.65625 318.171875 L 179.933594 318.171875 L 179.933594 324.4375 L 176.03125 321.539062 C 175.890625 321.433594 175.695312 321.433594 175.558594 321.539062 Z M 183.09375 326.789062 L 180.71875 325.023438 L 180.71875 318.171875 L 183.09375 318.171875 Z M 186.945312 317.238281 C 186.945312 317.328125 186.871094 317.402344 186.777344 317.402344 L 164.8125 317.402344 C 164.71875 317.402344 164.644531 317.328125 164.644531 317.238281 L 164.644531 311.257812 C 164.644531 311.167969 164.722656 311.09375 164.8125 311.09375 L 186.777344 311.09375 C 186.867188 311.09375 186.945312 311.167969 186.945312 311.257812 Z M 186.945312 317.238281 " fill-opacity="1" fill-rule="nonzero"/></g><path fill="#000000" d="M 184.59375 312.976562 C 184.8125 312.976562 184.988281 312.804688 184.988281 312.589844 C 184.988281 312.378906 184.8125 312.207031 184.59375 312.207031 L 182.574219 312.207031 C 182.359375 312.207031 182.183594 312.378906 182.183594 312.589844 L 182.183594 315.902344 C 182.183594 316.113281 182.359375 316.289062 182.574219 316.289062 L 184.59375 316.289062 C 184.8125 316.289062 184.988281 316.113281 184.988281 315.902344 C 184.988281 315.6875 184.8125 315.515625 184.59375 315.515625 L 182.96875 315.515625 L 182.96875 314.632812 L 184.59375 314.632812 C 184.8125 314.632812 184.988281 314.460938 184.988281 314.246094 C 184.988281 314.03125 184.8125 313.859375 184.59375 313.859375 L 182.96875 313.859375 L 182.96875 312.976562 Z M 184.59375 312.976562 " fill-opacity="1" fill-rule="nonzero"/><path fill="#000000" d="M 169.753906 312.234375 C 169.550781 312.152344 169.324219 312.246094 169.242188 312.445312 L 168.226562 314.882812 L 167.210938 312.445312 C 167.128906 312.25 166.902344 312.152344 166.699219 312.234375 C 166.5 312.316406 166.402344 312.539062 166.484375 312.738281 L 167.863281 316.046875 C 167.996094 316.355469 168.457031 316.363281 168.589844 316.046875 L 169.96875 312.738281 C 170.050781 312.539062 169.953125 312.316406 169.753906 312.234375 Z M 169.753906 312.234375 " fill-opacity="1" fill-rule="nonzero"/><path fill="#000000" d="M 173.496094 314.945312 C 173.496094 314.941406 173.496094 314.941406 173.496094 314.941406 L 172.496094 312.449219 C 172.371094 312.136719 171.890625 312.136719 171.765625 312.449219 L 170.765625 314.941406 C 170.765625 314.941406 170.765625 314.945312 170.761719 314.945312 L 170.4375 315.757812 C 170.355469 315.957031 170.457031 316.183594 170.65625 316.261719 C 170.703125 316.277344 170.753906 316.289062 170.800781 316.289062 C 170.957031 316.289062 171.105469 316.195312 171.167969 316.042969 L 171.394531 315.480469 L 172.867188 315.480469 L 173.09375 316.042969 C 173.15625 316.195312 173.304688 316.289062 173.460938 316.289062 C 173.507812 316.289062 173.558594 316.277344 173.605469 316.261719 C 173.804688 316.183594 173.90625 315.957031 173.824219 315.757812 Z M 171.703125 314.707031 L 172.132812 313.644531 L 172.558594 314.707031 Z M 171.703125 314.707031 " fill-opacity="1" fill-rule="nonzero"/><path fill="#000000" d="M 176.699219 315.515625 L 175.515625 315.515625 L 175.515625 312.589844 C 175.515625 312.378906 175.339844 312.207031 175.121094 312.207031 C 174.90625 312.207031 174.730469 312.378906 174.730469 312.589844 L 174.730469 315.902344 C 174.730469 316.113281 174.90625 316.289062 175.121094 316.289062 L 176.699219 316.289062 C 176.914062 316.289062 177.089844 316.113281 177.089844 315.902344 C 177.089844 315.6875 176.914062 315.515625 176.699219 315.515625 Z M 176.699219 315.515625 " fill-opacity="1" fill-rule="nonzero"/><path fill="#000000" d="M 180.714844 312.207031 C 180.496094 312.207031 180.320312 312.378906 180.320312 312.589844 L 180.320312 314.777344 C 180.320312 315.183594 179.960938 315.519531 179.515625 315.519531 C 179.070312 315.519531 178.707031 315.183594 178.707031 314.777344 L 178.707031 312.589844 C 178.707031 312.378906 178.53125 312.207031 178.3125 312.207031 C 178.097656 312.207031 177.921875 312.378906 177.921875 312.589844 L 177.921875 314.777344 C 177.921875 315.609375 178.636719 316.289062 179.515625 316.289062 C 180.390625 316.289062 181.105469 315.609375 181.105469 314.777344 L 181.105469 312.589844 C 181.105469 312.378906 180.929688 312.207031 180.714844 312.207031 Z M 180.714844 312.207031 " fill-opacity="1" fill-rule="nonzero"/><path fill="#000000" d="M 182.898438 305.167969 L 180.609375 305.167969 C 180.394531 305.167969 180.21875 305.339844 180.21875 305.554688 C 180.21875 305.765625 180.394531 305.9375 180.609375 305.9375 L 181.359375 305.9375 L 181.359375 308.890625 C 181.359375 309.101562 181.535156 309.273438 181.753906 309.273438 C 181.96875 309.273438 182.144531 309.101562 182.144531 308.890625 L 182.144531 305.9375 L 182.898438 305.9375 C 183.113281 305.9375 183.289062 305.765625 183.289062 305.554688 C 183.289062 305.339844 183.113281 305.167969 182.898438 305.167969 Z M 182.898438 305.167969 " fill-opacity="1" fill-rule="nonzero"/></svg>