<svg xmlns="http://www.w3.org/2000/svg" xmlns:xlink="http://www.w3.org/1999/xlink" width="500" zoomAndPan="magnify" viewBox="0 0 375 374.999991" height="500" preserveAspectRatio="xMidYMid meet" version="1.0"><defs><clipPath id="22742c2878"><path d="M 37.5 37.5 L 337.5 37.5 L 337.5 337.5 L 37.5 337.5 Z M 37.5 37.5 " clip-rule="nonzero"/></clipPath><clipPath id="bd790684fc"><path d="M 38 132 L 328 132 L 328 337.5 L 38 337.5 Z M 38 132 " clip-rule="nonzero"/></clipPath><clipPath id="0fdfa24b94"><path d="M 81 206 L 199 206 L 199 337.5 L 81 337.5 Z M 81 206 " clip-rule="nonzero"/></clipPath><clipPath id="3e68f2b9d6"><path d="M 140 210 L 185 210 L 185 337.5 L 140 337.5 Z M 140 210 " clip-rule="nonzero"/></clipPath></defs><g clip-path="url(#22742c2878)"><path fill="#53b4ed" d="M 337.5 187.5 C 337.5 189.953125 337.441406 192.410156 337.320312 194.859375 C 337.199219 197.3125 337.019531 199.757812 336.777344 202.203125 C 336.535156 204.644531 336.238281 207.082031 335.875 209.507812 C 335.515625 211.9375 335.097656 214.355469 334.617188 216.761719 C 334.140625 219.171875 333.601562 221.566406 333.003906 223.945312 C 332.40625 226.328125 331.753906 228.695312 331.039062 231.042969 C 330.328125 233.390625 329.558594 235.722656 328.730469 238.035156 C 327.90625 240.34375 327.019531 242.632812 326.082031 244.902344 C 325.140625 247.171875 324.148438 249.414062 323.097656 251.632812 C 322.046875 253.851562 320.945312 256.042969 319.789062 258.210938 C 318.632812 260.375 317.421875 262.511719 316.160156 264.617188 C 314.898438 266.722656 313.585938 268.792969 312.21875 270.835938 C 310.855469 272.875 309.445312 274.882812 307.980469 276.855469 C 306.519531 278.828125 305.007812 280.761719 303.453125 282.660156 C 301.894531 284.554688 300.292969 286.414062 298.644531 288.234375 C 296.992188 290.054688 295.300781 291.832031 293.566406 293.566406 C 291.832031 295.300781 290.054688 296.992188 288.234375 298.644531 C 286.414062 300.292969 284.554688 301.894531 282.660156 303.453125 C 280.761719 305.007812 278.828125 306.519531 276.855469 307.980469 C 274.882812 309.445312 272.875 310.855469 270.835938 312.21875 C 268.792969 313.585938 266.722656 314.898438 264.617188 316.160156 C 262.507812 317.421875 260.375 318.632812 258.210938 319.789062 C 256.042969 320.945312 253.851562 322.046875 251.632812 323.097656 C 249.414062 324.148438 247.171875 325.140625 244.902344 326.082031 C 242.632812 327.019531 240.34375 327.90625 238.035156 328.730469 C 235.722656 329.558594 233.390625 330.328125 231.042969 331.042969 C 228.695312 331.753906 226.328125 332.40625 223.945312 333.003906 C 221.566406 333.601562 219.171875 334.140625 216.761719 334.617188 C 214.355469 335.097656 211.9375 335.515625 209.507812 335.875 C 207.082031 336.238281 204.644531 336.535156 202.203125 336.777344 C 199.757812 337.019531 197.3125 337.199219 194.859375 337.320312 C 192.410156 337.441406 189.953125 337.5 187.5 337.5 C 185.046875 337.5 182.589844 337.441406 180.140625 337.320312 C 177.6875 337.199219 175.242188 337.019531 172.796875 336.777344 C 170.355469 336.535156 167.917969 336.238281 165.492188 335.875 C 163.0625 335.515625 160.644531 335.097656 158.238281 334.617188 C 155.828125 334.140625 153.433594 333.601562 151.054688 333.003906 C 148.671875 332.40625 146.304688 331.753906 143.957031 331.039062 C 141.609375 330.328125 139.277344 329.558594 136.964844 328.730469 C 134.65625 327.90625 132.367188 327.019531 130.097656 326.082031 C 127.828125 325.140625 125.585938 324.148438 123.367188 323.097656 C 121.148438 322.046875 118.957031 320.945312 116.789062 319.789062 C 114.625 318.632812 112.488281 317.421875 110.382812 316.160156 C 108.277344 314.898438 106.207031 313.585938 104.164062 312.21875 C 102.125 310.855469 100.117188 309.445312 98.144531 307.980469 C 96.171875 306.519531 94.238281 305.007812 92.339844 303.453125 C 90.445312 301.894531 88.585938 300.292969 86.765625 298.644531 C 84.945312 296.992188 83.167969 295.300781 81.433594 293.566406 C 79.699219 291.832031 78.007812 290.054688 76.355469 288.234375 C 74.707031 286.414062 73.105469 284.554688 71.546875 282.660156 C 69.992188 280.761719 68.480469 278.828125 67.019531 276.855469 C 65.554688 274.882812 64.144531 272.875 62.78125 270.835938 C 61.414062 268.792969 60.101562 266.722656 58.839844 264.617188 C 57.578125 262.507812 56.367188 260.375 55.210938 258.210938 C 54.054688 256.042969 52.953125 253.851562 51.902344 251.632812 C 50.851562 249.414062 49.859375 247.171875 48.917969 244.902344 C 47.980469 242.632812 47.09375 240.34375 46.269531 238.035156 C 45.441406 235.722656 44.671875 233.390625 43.957031 231.042969 C 43.246094 228.695312 42.589844 226.328125 41.996094 223.945312 C 41.398438 221.566406 40.859375 219.171875 40.382812 216.761719 C 39.902344 214.355469 39.484375 211.9375 39.125 209.507812 C 38.761719 207.082031 38.464844 204.644531 38.222656 202.203125 C 37.980469 199.757812 37.800781 197.3125 37.679688 194.859375 C 37.558594 192.410156 37.5 189.953125 37.5 187.5 C 37.5 185.046875 37.558594 182.589844 37.679688 180.140625 C 37.800781 177.6875 37.980469 175.242188 38.222656 172.796875 C 38.464844 170.355469 38.761719 167.917969 39.125 165.492188 C 39.484375 163.0625 39.902344 160.644531 40.382812 158.238281 C 40.859375 155.828125 41.398438 153.433594 41.996094 151.054688 C 42.589844 148.671875 43.246094 146.304688 43.957031 143.957031 C 44.671875 141.609375 45.441406 139.277344 46.269531 136.964844 C 47.09375 134.65625 47.980469 132.367188 48.917969 130.097656 C 49.859375 127.828125 50.851562 125.585938 51.902344 123.367188 C 52.953125 121.148438 54.054688 118.957031 55.210938 116.789062 C 56.367188 114.625 57.578125 112.488281 58.839844 110.382812 C 60.101562 108.277344 61.414062 106.207031 62.78125 104.164062 C 64.144531 102.125 65.554688 100.117188 67.019531 98.144531 C 68.480469 96.171875 69.992188 94.238281 71.546875 92.339844 C 73.105469 90.445312 74.707031 88.585938 76.355469 86.765625 C 78.007812 84.945312 79.699219 83.167969 81.433594 81.433594 C 83.167969 79.699219 84.945312 78.007812 86.765625 76.355469 C 88.585938 74.707031 90.445312 73.105469 92.339844 71.546875 C 94.238281 69.992188 96.171875 68.480469 98.144531 67.019531 C 100.117188 65.554688 102.125 64.144531 104.164062 62.78125 C 106.207031 61.414062 108.277344 60.101562 110.382812 58.839844 C 112.488281 57.578125 114.625 56.367188 116.789062 55.210938 C 118.957031 54.054688 121.148438 52.953125 123.367188 51.902344 C 125.585938 50.851562 127.828125 49.859375 130.097656 48.917969 C 132.367188 47.980469 134.65625 47.09375 136.964844 46.269531 C 139.277344 45.441406 141.609375 44.671875 143.957031 43.957031 C 146.304688 43.246094 148.671875 42.589844 151.054688 41.996094 C 153.433594 41.398438 155.828125 40.859375 158.238281 40.382812 C 160.644531 39.902344 163.0625 39.484375 165.492188 39.125 C 167.917969 38.761719 170.355469 38.464844 172.796875 38.222656 C 175.242188 37.980469 177.6875 37.800781 180.140625 37.679688 C 182.589844 37.558594 185.046875 37.5 187.5 37.5 C 189.953125 37.5 192.410156 37.558594 194.859375 37.679688 C 197.3125 37.800781 199.757812 37.980469 202.203125 38.222656 C 204.644531 38.464844 207.082031 38.761719 209.507812 39.125 C 211.9375 39.484375 214.355469 39.902344 216.761719 40.382812 C 219.171875 40.859375 221.566406 41.398438 223.945312 41.996094 C 226.328125 42.589844 228.695312 43.246094 231.042969 43.957031 C 233.390625 44.671875 235.722656 45.441406 238.035156 46.269531 C 240.34375 47.09375 242.632812 47.980469 244.902344 48.917969 C 247.171875 49.859375 249.414062 50.851562 251.632812 51.902344 C 253.851562 52.953125 256.042969 54.054688 258.210938 55.210938 C 260.375 56.367188 262.511719 57.578125 264.617188 58.839844 C 266.722656 60.101562 268.792969 61.414062 270.835938 62.78125 C 272.875 64.144531 274.882812 65.554688 276.855469 67.019531 C 278.828125 68.480469 280.761719 69.992188 282.660156 71.546875 C 284.554688 73.105469 286.414062 74.707031 288.234375 76.355469 C 290.054688 78.007812 291.832031 79.699219 293.566406 81.433594 C 295.300781 83.167969 296.992188 84.945312 298.644531 86.765625 C 300.292969 88.585938 301.894531 90.445312 303.453125 92.339844 C 305.007812 94.238281 306.519531 96.171875 307.980469 98.144531 C 309.445312 100.117188 310.855469 102.125 312.21875 104.164062 C 313.585938 106.207031 314.898438 108.277344 316.160156 110.382812 C 317.421875 112.488281 318.632812 114.625 319.789062 116.789062 C 320.945312 118.957031 322.046875 121.148438 323.097656 123.367188 C 324.148438 125.585938 325.140625 127.828125 326.082031 130.097656 C 327.019531 132.367188 327.90625 134.65625 328.730469 136.964844 C 329.558594 139.277344 330.328125 141.609375 331.042969 143.957031 C 331.753906 146.304688 332.40625 148.671875 333.003906 151.054688 C 333.601562 153.433594 334.140625 155.828125 334.617188 158.238281 C 335.097656 160.644531 335.515625 163.0625 335.875 165.492188 C 336.238281 167.917969 336.535156 170.355469 336.777344 172.796875 C 337.019531 175.242188 337.199219 177.6875 337.320312 180.140625 C 337.441406 182.589844 337.5 185.046875 337.5 187.5 Z M 337.5 187.5 " fill-opacity="1" fill-rule="nonzero"/></g><g clip-path="url(#bd790684fc)"><path fill="#3091c9" d="M 38.402344 203.90625 L 46.882812 203.90625 L 46.882812 164.730469 L 88.691406 164.730469 L 88.691406 203.90625 L 101.164062 203.90625 L 101.164062 250.90625 L 190.460938 283.804688 L 190.460938 249.734375 L 208.082031 249.734375 L 208.082031 190.402344 L 220.027344 190.402344 L 220.027344 162.195312 L 243.113281 162.195312 L 243.113281 190.402344 L 255.070312 190.402344 L 255.070312 249.734375 L 272.691406 249.734375 L 272.691406 221.800781 L 279.542969 221.800781 L 279.542969 156.589844 L 287.566406 156.589844 L 287.566406 132.730469 L 309.136719 132.730469 L 309.136719 156.589844 L 317.144531 156.589844 L 317.144531 221.800781 L 327.585938 221.800781 L 327.585938 241.210938 C 305.976562 297.523438 251.421875 337.5 187.5 337.5 C 110.191406 337.5 46.570312 279.027344 38.402344 203.90625 Z M 291.429688 137.480469 L 305.273438 137.480469 L 305.273438 141.34375 L 291.429688 141.34375 Z M 291.429688 147.980469 L 305.273438 147.980469 L 305.273438 151.839844 L 291.429688 151.839844 Z M 286.679688 164.601562 L 292.199219 164.601562 L 292.199219 216.105469 L 286.679688 216.105469 Z M 304.488281 164.601562 L 310.007812 164.601562 L 310.007812 216.105469 L 304.488281 216.105469 Z M 78.023438 169.992188 L 82.253906 169.992188 L 82.253906 182.894531 L 78.023438 182.894531 Z M 78.023438 188.644531 L 82.253906 188.644531 L 82.253906 201.558594 L 78.023438 201.558594 Z M 53.320312 188.644531 L 57.539062 188.644531 L 57.539062 201.558594 L 53.320312 201.558594 Z M 65.679688 188.644531 L 69.898438 188.644531 L 69.898438 201.558594 L 65.679688 201.558594 Z M 53.320312 169.992188 L 57.539062 169.992188 L 57.539062 182.894531 L 53.320312 182.894531 Z M 65.679688 169.992188 L 69.898438 169.992188 L 69.898438 182.894531 L 65.679688 182.894531 Z M 65.679688 169.992188 " fill-opacity="1" fill-rule="evenodd"/></g><path fill="#dea767" d="M 239.523438 79.09375 L 257.058594 73.289062 C 261.535156 71.800781 265.726562 74.488281 267.214844 78.964844 L 276.738281 107.703125 C 278.226562 112.191406 275.878906 119.171875 271.203125 119.773438 L 258.714844 121.402344 C 249.578125 122.605469 242.738281 111.589844 240.980469 106.300781 L 235.417969 89.507812 C 233.929688 85.03125 235.042969 80.582031 239.523438 79.09375 Z M 239.523438 79.09375 " fill-opacity="1" fill-rule="evenodd"/><path fill="#0d3d4a" d="M 170.507812 213.734375 L 244.542969 196.28125 C 245.957031 195.953125 247.246094 195.582031 248.046875 194.378906 C 248.863281 193.164062 248.433594 191.847656 248.460938 190.402344 L 249.964844 127.742188 L 277.425781 122.976562 L 283.203125 205.222656 C 283.789062 213.660156 281.273438 219.339844 271.675781 223.558594 L 175.984375 265.667969 Z M 170.507812 213.734375 " fill-opacity="1" fill-rule="evenodd"/><path fill="#ffc57a" d="M 235.257812 109.859375 C 238.621094 108.632812 241.824219 107.515625 246.988281 110.261719 C 262.007812 108.660156 263.035156 117.726562 262.519531 120.875 C 251.394531 125.839844 248.949219 120.917969 240.195312 115.511719 L 231.109375 117.226562 C 231.109375 117.226562 228.222656 112.0625 235.257812 109.859375 Z M 235.257812 109.859375 " fill-opacity="1" fill-rule="evenodd"/><g clip-path="url(#0fdfa24b94)"><path fill="#154e5e" d="M 198.085938 255.328125 L 198.085938 337.113281 C 194.582031 337.355469 191.0625 337.5 187.5 337.5 C 146.132812 337.5 108.675781 320.75 81.539062 293.675781 L 81.539062 255.328125 C 81.539062 190.015625 198.085938 190.015625 198.085938 255.328125 Z M 198.085938 255.328125 " fill-opacity="1" fill-rule="evenodd"/></g><g clip-path="url(#3e68f2b9d6)"><path fill="#ffffff" d="M 140.8125 212.214844 L 148.738281 221.183594 L 148.738281 332.4375 C 160.28125 335.511719 172.382812 337.242188 184.855469 337.457031 L 184.855469 242.738281 C 185.898438 228.121094 175.457031 205.492188 140.8125 212.214844 Z M 140.8125 212.214844 " fill-opacity="1" fill-rule="evenodd"/></g><path fill="#dea767" d="M 108.929688 180.691406 L 114.636719 202.761719 L 152.914062 209.253906 L 147.824219 187.742188 Z M 108.929688 180.691406 " fill-opacity="1" fill-rule="evenodd"/><path fill="#814c21" d="M 151.644531 132.980469 L 178.023438 120.742188 L 184.035156 133.703125 L 157.652344 145.9375 Z M 151.644531 132.980469 " fill-opacity="1" fill-rule="evenodd"/><path fill="#965520" d="M 176.273438 118.585938 L 232.65625 92.425781 L 240.9375 110.289062 L 184.554688 136.449219 Z M 176.273438 118.585938 " fill-opacity="1" fill-rule="evenodd"/><path fill="#b36c3b" d="M 227.863281 85.84375 L 290.085938 57.054688 L 305.046875 89.292969 L 242.8125 118.085938 Z M 227.863281 85.84375 " fill-opacity="1" fill-rule="evenodd"/><path fill="#965520" d="M 290.335938 51.441406 L 294.273438 49.613281 C 294.585938 49.46875 294.949219 49.46875 295.363281 49.613281 C 295.777344 49.757812 296.214844 50.03125 296.671875 50.441406 C 297.128906 50.847656 297.570312 51.359375 298 51.972656 C 298.425781 52.582031 298.808594 53.25 299.144531 53.972656 L 313.238281 84.355469 C 313.570312 85.074219 313.835938 85.796875 314.023438 86.519531 C 314.214844 87.242188 314.320312 87.910156 314.335938 88.523438 C 314.351562 89.132812 314.28125 89.644531 314.121094 90.054688 C 313.964844 90.464844 313.726562 90.742188 313.417969 90.886719 L 309.476562 92.714844 C 309.167969 92.855469 308.804688 92.859375 308.386719 92.714844 C 307.972656 92.570312 307.535156 92.296875 307.082031 91.886719 C 306.625 91.480469 306.179688 90.96875 305.753906 90.355469 C 305.324219 89.746094 304.941406 89.078125 304.609375 88.355469 L 290.515625 57.972656 C 290.179688 57.253906 289.917969 56.53125 289.726562 55.808594 C 289.539062 55.085938 289.433594 54.417969 289.417969 53.804688 C 289.398438 53.191406 289.472656 52.683594 289.628906 52.273438 C 289.789062 51.863281 290.023438 51.585938 290.335938 51.441406 Z M 290.335938 51.441406 " fill-opacity="1" fill-rule="evenodd"/><path fill="#ff576b" d="M 164.785156 223.660156 L 166.945312 224.675781 L 177.257812 316.273438 L 166.859375 328.03125 L 157.035156 316.332031 Z M 164.785156 223.660156 " fill-opacity="1" fill-rule="evenodd"/><path fill="#ffc57a" d="M 158.105469 133.832031 L 176.457031 147.738281 C 177.53125 148.550781 177.359375 150.554688 176.1875 151.226562 L 166.417969 156.890625 C 166.128906 162.453125 173.882812 179.777344 163.8125 187.585938 C 156.632812 193.136719 123.707031 200.128906 108.929688 180.707031 C 76.21875 164.914062 77.894531 146.777344 81.625 129.671875 C 88.648438 97.515625 156.046875 89.863281 158.105469 133.832031 Z M 158.105469 133.832031 " fill-opacity="1" fill-rule="evenodd"/><path fill="#154e5e" d="M 156.960938 96.328125 C 156.960938 96.328125 159.492188 123.191406 129 123.664062 C 98.519531 124.136719 97.246094 134.25 97.246094 134.25 L 107.199219 143.574219 L 103.996094 154.1875 L 108.773438 165.5 C 108.773438 165.5 96.902344 156.949219 94.871094 164.140625 C 91.59375 171.394531 108.929688 180.707031 108.929688 180.707031 C 82.414062 168.820312 67.265625 145.589844 81.625 129.671875 C 78.695312 103.109375 110.019531 92.28125 134.734375 99.546875 C 143.558594 102.136719 152.054688 100.90625 156.960938 96.328125 Z M 156.960938 96.328125 " fill-opacity="1" fill-rule="evenodd"/><path fill="#ffc57a" d="M 236.03125 74.890625 C 236.453125 74.75 236.898438 74.710938 237.355469 74.777344 C 237.8125 74.839844 238.253906 75.003906 238.675781 75.265625 C 239.097656 75.527344 239.46875 75.867188 239.789062 76.285156 C 240.109375 76.703125 240.355469 77.167969 240.527344 77.679688 L 242.769531 84.386719 C 242.941406 84.898438 243.023438 85.417969 243.019531 85.945312 C 243.015625 86.472656 242.925781 86.96875 242.746094 87.429688 C 242.566406 87.890625 242.3125 88.289062 241.984375 88.613281 C 241.660156 88.941406 241.28125 89.175781 240.859375 89.320312 C 240.433594 89.460938 239.992188 89.5 239.53125 89.433594 C 239.074219 89.371094 238.636719 89.207031 238.214844 88.945312 C 237.792969 88.683594 237.421875 88.34375 237.101562 87.925781 C 236.777344 87.507812 236.53125 87.042969 236.363281 86.53125 L 234.117188 79.824219 C 233.945312 79.3125 233.863281 78.792969 233.867188 78.265625 C 233.871094 77.738281 233.964844 77.242188 234.144531 76.78125 C 234.324219 76.320312 234.574219 75.921875 234.902344 75.597656 C 235.230469 75.269531 235.605469 75.035156 236.03125 74.890625 Z M 236.03125 74.890625 " fill-opacity="1" fill-rule="evenodd"/><path fill="#ffc57a" d="M 243.671875 72.335938 C 244.097656 72.191406 244.539062 72.152344 244.996094 72.21875 C 245.453125 72.285156 245.894531 72.445312 246.316406 72.707031 C 246.738281 72.96875 247.109375 73.308594 247.429688 73.726562 C 247.75 74.148438 247.996094 74.613281 248.167969 75.125 L 250.410156 81.828125 C 250.582031 82.339844 250.664062 82.859375 250.660156 83.386719 C 250.65625 83.914062 250.566406 84.410156 250.386719 84.871094 C 250.207031 85.335938 249.953125 85.730469 249.625 86.058594 C 249.300781 86.386719 248.921875 86.621094 248.5 86.761719 C 248.074219 86.902344 247.632812 86.941406 247.175781 86.878906 C 246.714844 86.8125 246.277344 86.652344 245.855469 86.390625 C 245.433594 86.128906 245.0625 85.789062 244.742188 85.367188 C 244.417969 84.949219 244.171875 84.484375 244.003906 83.972656 L 241.757812 77.269531 C 241.585938 76.757812 241.503906 76.238281 241.507812 75.710938 C 241.511719 75.183594 241.605469 74.6875 241.785156 74.222656 C 241.964844 73.761719 242.214844 73.367188 242.542969 73.039062 C 242.871094 72.710938 243.246094 72.476562 243.671875 72.335938 Z M 243.671875 72.335938 " fill-opacity="1" fill-rule="evenodd"/><path fill="#ffc57a" d="M 251.3125 69.777344 C 251.738281 69.636719 252.179688 69.597656 252.636719 69.660156 C 253.097656 69.726562 253.535156 69.890625 253.957031 70.152344 C 254.378906 70.414062 254.75 70.753906 255.070312 71.171875 C 255.390625 71.589844 255.636719 72.054688 255.808594 72.566406 L 258.050781 79.273438 C 258.222656 79.785156 258.308594 80.304688 258.304688 80.832031 C 258.296875 81.359375 258.207031 81.851562 258.027344 82.316406 C 257.847656 82.777344 257.59375 83.171875 257.269531 83.5 C 256.941406 83.828125 256.566406 84.0625 256.140625 84.207031 C 255.714844 84.347656 255.273438 84.386719 254.816406 84.320312 C 254.359375 84.257812 253.917969 84.09375 253.496094 83.832031 C 253.074219 83.570312 252.703125 83.230469 252.382812 82.8125 C 252.0625 82.394531 251.816406 81.929688 251.644531 81.414062 L 249.402344 74.710938 C 249.230469 74.199219 249.148438 73.679688 249.152344 73.152344 C 249.15625 72.625 249.246094 72.128906 249.425781 71.667969 C 249.605469 71.203125 249.859375 70.808594 250.183594 70.484375 C 250.511719 70.15625 250.886719 69.921875 251.3125 69.777344 Z M 251.3125 69.777344 " fill-opacity="1" fill-rule="evenodd"/><path fill="#ffc57a" d="M 258.953125 67.222656 C 259.378906 67.078125 259.820312 67.039062 260.277344 67.105469 C 260.738281 67.167969 261.175781 67.332031 261.597656 67.59375 C 262.019531 67.855469 262.390625 68.195312 262.710938 68.613281 C 263.03125 69.03125 263.277344 69.5 263.449219 70.011719 L 265.695312 76.714844 C 265.863281 77.226562 265.949219 77.746094 265.945312 78.273438 C 265.941406 78.800781 265.847656 79.296875 265.667969 79.757812 C 265.488281 80.222656 265.234375 80.617188 264.910156 80.945312 C 264.582031 81.269531 264.207031 81.507812 263.78125 81.648438 C 263.355469 81.789062 262.914062 81.828125 262.457031 81.765625 C 262 81.699219 261.558594 81.535156 261.136719 81.273438 C 260.714844 81.015625 260.34375 80.671875 260.023438 80.253906 C 259.703125 79.835938 259.457031 79.371094 259.285156 78.859375 L 257.042969 72.15625 C 256.871094 71.644531 256.789062 71.121094 256.792969 70.59375 C 256.796875 70.066406 256.886719 69.574219 257.066406 69.109375 C 257.246094 68.648438 257.5 68.253906 257.828125 67.925781 C 258.152344 67.597656 258.53125 67.363281 258.953125 67.222656 Z M 258.953125 67.222656 " fill-opacity="1" fill-rule="evenodd"/><path fill="#ffc57a" d="M 189.300781 132.230469 C 189.300781 132.230469 194.566406 131.273438 196.054688 132.132812 C 197.539062 133.003906 206.394531 139.3125 206.394531 139.3125 L 207.410156 143.273438 L 228.878906 140.542969 L 228.9375 134.277344 C 231.425781 128.984375 232.242188 122.375 231.3125 115.269531 C 230.824219 111.546875 226.675781 96.316406 226.164062 91.667969 C 225.359375 86.675781 218.453125 88.464844 219.3125 92.625 L 220.054688 96.117188 L 219.253906 96.414062 L 218.066406 92.082031 C 216.980469 87.648438 209.898438 88.363281 210.671875 93.742188 L 211.488281 99.0625 L 210.742188 99.289062 L 208.097656 91.179688 C 206.796875 87.875 199.371094 89.222656 200.558594 94.542969 L 202.546875 102.421875 L 201.730469 102.753906 L 199.472656 96.875 C 198.597656 92.082031 190.675781 92.738281 191.777344 98.589844 L 197.96875 123.261719 C 190.015625 122.390625 183.609375 123.921875 181.492188 129.285156 C 180.835938 132.460938 184.28125 134.90625 189.300781 132.230469 Z M 189.300781 132.230469 " fill-opacity="1" fill-rule="evenodd"/><path fill="#ffffff" d="M 205.566406 142.144531 L 205.636719 147.863281 L 231.710938 144.804688 L 231.28125 139.410156 Z M 205.566406 142.144531 " fill-opacity="1" fill-rule="evenodd"/><path fill="#d2d7dc" d="M 304.800781 49.601562 L 312.355469 40.289062 L 314.414062 41.949219 L 306.847656 51.261719 Z M 304.800781 49.601562 " fill-opacity="1" fill-rule="nonzero"/><path fill="#d2d7dc" d="M 312.324219 64.476562 L 329.949219 55.578125 L 330.976562 58.039062 L 313.527344 66.835938 Z M 312.324219 64.476562 " fill-opacity="1" fill-rule="nonzero"/><path fill="#d2d7dc" d="M 320.007812 80.222656 L 332.265625 78.878906 L 332.523438 81.527344 L 320.265625 82.855469 Z M 320.007812 80.222656 " fill-opacity="1" fill-rule="nonzero"/><path fill="#edeeee" d="M 160.167969 204.535156 L 167.890625 218.996094 L 154.144531 214.277344 L 151.667969 204.234375 Z M 160.167969 204.535156 " fill-opacity="1" fill-rule="evenodd"/><path fill="#ffffff" d="M 114.636719 202.761719 L 152.914062 209.253906 L 156.890625 227.621094 L 110.992188 212.117188 Z M 114.636719 202.761719 " fill-opacity="1" fill-rule="evenodd"/><path fill="#154e5e" d="M 139.828125 222.558594 L 196.683594 221.355469 C 199.15625 221.3125 201.890625 219.925781 201.988281 217.453125 L 204.605469 147.980469 L 233.457031 144.589844 L 232.269531 241.796875 C 232.140625 251.921875 222.371094 253.296875 220.496094 253.910156 L 141.484375 280.101562 C 107.558594 281.945312 90.578125 227.578125 139.828125 222.558594 Z M 139.828125 222.558594 " fill-opacity="1" fill-rule="evenodd"/><path fill="#ffffff" d="M 251.378906 127.46875 L 250.59375 122.132812 L 274.652344 117.554688 L 275.550781 123.304688 Z M 251.378906 127.46875 " fill-opacity="1" fill-rule="evenodd"/><path fill="#80b2e8" d="M 281.433594 273.230469 C 282.140625 273.558594 282.804688 273.972656 283.417969 274.464844 C 284.035156 274.957031 284.589844 275.519531 285.089844 276.15625 C 285.585938 276.792969 286.015625 277.492188 286.378906 278.246094 C 286.742188 279.003906 287.027344 279.804688 287.238281 280.652344 C 287.453125 281.5 287.585938 282.375 287.640625 283.28125 C 287.691406 284.1875 287.667969 285.101562 287.5625 286.03125 C 287.453125 286.960938 287.269531 287.882812 287.007812 288.796875 C 286.746094 289.714844 286.410156 290.605469 286.003906 291.476562 C 285.59375 292.34375 285.121094 293.171875 284.582031 293.960938 C 284.042969 294.746094 283.453125 295.480469 282.804688 296.15625 C 282.15625 296.832031 281.464844 297.441406 280.730469 297.980469 C 280 298.519531 279.238281 298.976562 278.449219 299.359375 C 277.660156 299.738281 276.855469 300.035156 276.039062 300.242188 C 275.226562 300.453125 274.410156 300.570312 273.601562 300.597656 C 272.789062 300.625 272 300.5625 271.222656 300.410156 C 270.449219 300.257812 269.707031 300.015625 269 299.683594 C 268.292969 299.355469 267.628906 298.945312 267.015625 298.453125 C 266.402344 297.960938 265.84375 297.394531 265.347656 296.757812 C 264.847656 296.121094 264.417969 295.425781 264.054688 294.667969 C 263.695312 293.914062 263.40625 293.109375 263.195312 292.261719 C 262.984375 291.417969 262.847656 290.539062 262.796875 289.636719 C 262.742188 288.730469 262.765625 287.8125 262.875 286.882812 C 262.980469 285.957031 263.164062 285.035156 263.425781 284.117188 C 263.6875 283.203125 264.023438 282.308594 264.429688 281.441406 C 264.839844 280.570312 265.3125 279.742188 265.851562 278.957031 C 266.390625 278.167969 266.984375 277.4375 267.632812 276.761719 C 268.28125 276.085938 268.96875 275.476562 269.703125 274.9375 C 270.4375 274.398438 271.195312 273.9375 271.988281 273.558594 C 272.777344 273.175781 273.578125 272.882812 274.394531 272.671875 C 275.210938 272.464844 276.023438 272.34375 276.832031 272.316406 C 277.644531 272.289062 278.4375 272.351562 279.210938 272.507812 C 279.984375 272.660156 280.726562 272.902344 281.433594 273.230469 Z M 281.433594 273.230469 " fill-opacity="1" fill-rule="nonzero"/><path fill="#d2edff" d="M 279.265625 272.222656 C 279.972656 272.550781 280.636719 272.964844 281.25 273.457031 C 281.867188 273.949219 282.421875 274.511719 282.921875 275.148438 C 283.417969 275.785156 283.847656 276.484375 284.210938 277.238281 C 284.574219 277.996094 284.859375 278.796875 285.070312 279.644531 C 285.285156 280.492188 285.417969 281.367188 285.472656 282.273438 C 285.527344 283.179688 285.5 284.09375 285.394531 285.023438 C 285.289062 285.953125 285.101562 286.875 284.839844 287.789062 C 284.578125 288.707031 284.242188 289.597656 283.835938 290.46875 C 283.425781 291.335938 282.953125 292.164062 282.414062 292.953125 C 281.875 293.738281 281.285156 294.472656 280.636719 295.148438 C 279.988281 295.824219 279.296875 296.429688 278.5625 296.96875 C 277.832031 297.507812 277.070312 297.96875 276.28125 298.351562 C 275.492188 298.730469 274.6875 299.027344 273.871094 299.234375 C 273.058594 299.445312 272.242188 299.5625 271.433594 299.589844 C 270.625 299.617188 269.832031 299.554688 269.054688 299.402344 C 268.28125 299.25 267.542969 299.007812 266.832031 298.675781 C 266.125 298.347656 265.464844 297.9375 264.847656 297.445312 C 264.234375 296.953125 263.675781 296.386719 263.179688 295.75 C 262.679688 295.113281 262.25 294.417969 261.886719 293.660156 C 261.527344 292.902344 261.238281 292.101562 261.027344 291.253906 C 260.816406 290.40625 260.683594 289.53125 260.628906 288.625 C 260.574219 287.722656 260.597656 286.804688 260.707031 285.875 C 260.8125 284.949219 260.996094 284.027344 261.257812 283.109375 C 261.519531 282.191406 261.855469 281.300781 262.261719 280.433594 C 262.671875 279.5625 263.144531 278.734375 263.683594 277.949219 C 264.222656 277.160156 264.816406 276.429688 265.464844 275.753906 C 266.113281 275.074219 266.800781 274.46875 267.535156 273.929688 C 268.269531 273.390625 269.027344 272.929688 269.820312 272.550781 C 270.609375 272.167969 271.410156 271.871094 272.226562 271.664062 C 273.042969 271.457031 273.855469 271.335938 274.664062 271.308594 C 275.476562 271.28125 276.269531 271.34375 277.042969 271.496094 C 277.816406 271.652344 278.558594 271.894531 279.265625 272.222656 Z M 279.265625 272.222656 " fill-opacity="1" fill-rule="nonzero"/><path fill="#312f84" d="M 277.859375 275.21875 C 278.40625 275.472656 278.917969 275.792969 279.394531 276.171875 C 279.867188 276.554688 280.300781 276.992188 280.683594 277.484375 C 281.070312 277.976562 281.402344 278.515625 281.683594 279.097656 C 281.960938 279.683594 282.183594 280.304688 282.347656 280.960938 C 282.511719 281.613281 282.617188 282.292969 282.65625 282.992188 C 282.699219 283.691406 282.679688 284.402344 282.597656 285.121094 C 282.515625 285.839844 282.371094 286.550781 282.167969 287.261719 C 281.96875 287.96875 281.707031 288.660156 281.390625 289.332031 C 281.078125 290.003906 280.710938 290.644531 280.292969 291.253906 C 279.878906 291.859375 279.417969 292.425781 278.917969 292.949219 C 278.414062 293.472656 277.882812 293.945312 277.316406 294.359375 C 276.746094 294.777344 276.160156 295.132812 275.546875 295.429688 C 274.9375 295.722656 274.316406 295.953125 273.6875 296.113281 C 273.054688 296.273438 272.425781 296.367188 271.800781 296.386719 C 271.171875 296.410156 270.558594 296.359375 269.960938 296.242188 C 269.363281 296.121094 268.789062 295.933594 268.242188 295.679688 C 267.691406 295.425781 267.179688 295.109375 266.707031 294.726562 C 266.230469 294.347656 265.800781 293.910156 265.414062 293.417969 C 265.03125 292.925781 264.695312 292.386719 264.417969 291.800781 C 264.136719 291.214844 263.914062 290.59375 263.75 289.941406 C 263.585938 289.285156 263.484375 288.605469 263.441406 287.90625 C 263.398438 287.207031 263.417969 286.496094 263.5 285.78125 C 263.582031 285.0625 263.726562 284.347656 263.929688 283.640625 C 264.132812 282.929688 264.390625 282.242188 264.707031 281.570312 C 265.023438 280.898438 265.390625 280.257812 265.804688 279.648438 C 266.222656 279.039062 266.679688 278.472656 267.183594 277.949219 C 267.683594 277.425781 268.21875 276.957031 268.785156 276.539062 C 269.351562 276.121094 269.941406 275.765625 270.550781 275.472656 C 271.160156 275.175781 271.78125 274.949219 272.414062 274.789062 C 273.042969 274.625 273.671875 274.535156 274.300781 274.511719 C 274.925781 274.492188 275.539062 274.539062 276.136719 274.660156 C 276.738281 274.777344 277.308594 274.964844 277.859375 275.21875 Z M 277.859375 275.21875 " fill-opacity="1" fill-rule="nonzero"/><path fill="#d2edff" d="M 276.296875 278.539062 C 276.667969 278.710938 277.011719 278.925781 277.335938 279.183594 C 277.65625 279.441406 277.945312 279.734375 278.207031 280.070312 C 278.464844 280.402344 278.691406 280.765625 278.878906 281.160156 C 279.070312 281.554688 279.21875 281.972656 279.332031 282.417969 C 279.441406 282.859375 279.511719 283.316406 279.539062 283.789062 C 279.566406 284.261719 279.554688 284.742188 279.5 285.226562 C 279.441406 285.710938 279.347656 286.195312 279.210938 286.671875 C 279.074219 287.152344 278.898438 287.617188 278.683594 288.070312 C 278.472656 288.523438 278.222656 288.957031 277.941406 289.367188 C 277.660156 289.78125 277.351562 290.164062 277.011719 290.515625 C 276.675781 290.871094 276.3125 291.1875 275.929688 291.46875 C 275.546875 291.75 275.148438 291.992188 274.738281 292.191406 C 274.324219 292.390625 273.90625 292.542969 273.480469 292.652344 C 273.054688 292.761719 272.628906 292.824219 272.207031 292.835938 C 271.78125 292.851562 271.367188 292.820312 270.964844 292.738281 C 270.558594 292.660156 270.171875 292.53125 269.800781 292.359375 C 269.433594 292.1875 269.085938 291.972656 268.765625 291.714844 C 268.445312 291.457031 268.152344 291.164062 267.890625 290.832031 C 267.632812 290.5 267.40625 290.132812 267.21875 289.738281 C 267.027344 289.34375 266.878906 288.925781 266.769531 288.484375 C 266.65625 288.039062 266.589844 287.582031 266.558594 287.109375 C 266.53125 286.636719 266.546875 286.15625 266.601562 285.671875 C 266.65625 285.1875 266.753906 284.707031 266.890625 284.226562 C 267.027344 283.75 267.203125 283.28125 267.414062 282.828125 C 267.628906 282.375 267.875 281.941406 268.15625 281.53125 C 268.4375 281.121094 268.746094 280.738281 269.085938 280.382812 C 269.425781 280.03125 269.785156 279.710938 270.167969 279.429688 C 270.550781 279.148438 270.949219 278.910156 271.363281 278.710938 C 271.773438 278.511719 272.191406 278.355469 272.621094 278.246094 C 273.046875 278.140625 273.46875 278.078125 273.894531 278.0625 C 274.316406 278.046875 274.730469 278.082031 275.136719 278.160156 C 275.539062 278.242188 275.925781 278.367188 276.296875 278.539062 Z M 276.296875 278.539062 " fill-opacity="1" fill-rule="nonzero"/><path fill="#312f84" d="M 274.507812 282.34375 C 274.84375 282.5 275.128906 282.730469 275.367188 283.03125 C 275.601562 283.335938 275.769531 283.6875 275.871094 284.085938 C 275.972656 284.488281 275.996094 284.910156 275.945312 285.351562 C 275.894531 285.789062 275.773438 286.214844 275.582031 286.628906 C 275.386719 287.039062 275.136719 287.40625 274.828125 287.726562 C 274.523438 288.046875 274.183594 288.296875 273.808594 288.476562 C 273.433594 288.660156 273.054688 288.753906 272.671875 288.769531 C 272.285156 288.78125 271.925781 288.710938 271.589844 288.554688 C 271.253906 288.398438 270.96875 288.167969 270.734375 287.867188 C 270.496094 287.566406 270.328125 287.214844 270.226562 286.8125 C 270.128906 286.410156 270.101562 285.988281 270.152344 285.550781 C 270.203125 285.109375 270.324219 284.683594 270.519531 284.273438 C 270.710938 283.859375 270.960938 283.496094 271.269531 283.175781 C 271.578125 282.851562 271.917969 282.601562 272.292969 282.421875 C 272.664062 282.242188 273.042969 282.144531 273.429688 282.132812 C 273.8125 282.117188 274.171875 282.1875 274.507812 282.34375 Z M 274.507812 282.34375 " fill-opacity="1" fill-rule="nonzero"/><path fill="#8282db" d="M 264.84375 279.957031 C 264.84375 279.957031 262.683594 272.90625 260.488281 271.832031 C 258.296875 270.753906 259.007812 277.238281 259.007812 277.238281 Z M 264.84375 279.957031 " fill-opacity="1" fill-rule="nonzero"/><path fill="#8282db" d="M 263.6875 282.128906 C 263.6875 282.128906 257.242188 284.019531 256.355469 282.347656 C 255.472656 280.675781 257.726562 279.957031 257.726562 279.957031 Z M 263.6875 282.128906 " fill-opacity="1" fill-rule="nonzero"/><path fill="#5656bf" d="M 260.453125 278.078125 C 260.351562 278.078125 260.296875 278.027344 260.289062 277.925781 L 259.894531 273.546875 C 259.890625 273.441406 259.941406 273.382812 260.046875 273.375 C 260.152344 273.367188 260.214844 273.414062 260.230469 273.515625 L 260.621094 277.898438 C 260.628906 278.007812 260.578125 278.066406 260.46875 278.078125 Z M 260.453125 278.078125 " fill-opacity="1" fill-rule="nonzero"/><path fill="#5656bf" d="M 261.734375 278.675781 C 261.632812 278.675781 261.574219 278.625 261.570312 278.519531 L 261.375 275.84375 C 261.363281 275.726562 261.414062 275.667969 261.53125 275.65625 C 261.648438 275.648438 261.707031 275.703125 261.710938 275.820312 L 261.898438 278.496094 C 261.90625 278.605469 261.855469 278.667969 261.746094 278.675781 Z M 261.734375 278.675781 " fill-opacity="1" fill-rule="nonzero"/><path fill="#5656bf" d="M 257.78125 281.976562 C 257.683594 281.976562 257.628906 281.929688 257.617188 281.832031 C 257.601562 281.734375 257.644531 281.675781 257.738281 281.648438 L 260.410156 280.910156 C 260.515625 280.878906 260.585938 280.917969 260.617188 281.023438 C 260.648438 281.128906 260.609375 281.199219 260.5 281.230469 L 257.828125 281.96875 C 257.8125 281.972656 257.796875 281.976562 257.78125 281.976562 Z M 257.78125 281.976562 " fill-opacity="1" fill-rule="nonzero"/><path fill="#5656bf" d="M 273.464844 285.125 L 273.449219 285.136719 C 273.308594 285.214844 273.164062 285.230469 273.015625 285.179688 L 258.429688 280.40625 C 258.09375 280.296875 257.820312 280.097656 257.613281 279.8125 C 257.40625 279.53125 257.304688 279.210938 257.304688 278.859375 C 257.304688 278.683594 257.332031 278.515625 257.386719 278.347656 C 257.464844 278.125 257.582031 277.929688 257.742188 277.757812 C 257.902344 277.585938 258.09375 277.453125 258.308594 277.363281 C 258.527344 277.273438 258.753906 277.230469 258.992188 277.238281 C 259.226562 277.246094 259.449219 277.304688 259.660156 277.40625 L 273.4375 284.1875 C 273.535156 284.230469 273.609375 284.300781 273.660156 284.390625 C 273.738281 284.519531 273.757812 284.65625 273.71875 284.800781 C 273.679688 284.945312 273.59375 285.054688 273.464844 285.125 Z M 273.464844 285.125 " fill-opacity="1" fill-rule="nonzero"/></svg>